<svg aria-hidden="true" style="width:0;height:0;position:absolute;overflow:hidden" xmlns="http://www.w3.org/2000/svg"><defs><symbol id="icon-map-pin" viewBox="0 0 32 32"><path stroke-linejoin="round" stroke-linecap="round" stroke-width="1.5" d="M23.2 14.4c0 5.6-7.2 10.4-7.2 10.4S8.8 20 8.8 14.4a7.2 7.2 0 0 1 14.4 0z"/><path stroke-linejoin="round" stroke-linecap="round" stroke-width="1.5" d="M16 16.8a2.4 2.4 0 1 0 0-4.8 2.4 2.4 0 0 0 0 4.8z"/></symbol><symbol id="icon-search" viewBox="0 0 32 32"><path fill="#bababa" style="fill:var(--color8,#bababa)" d="M26.898 26.816a.75.75 0 1 0 1.061-1.061l-1.061 1.061zm-4.187-6.308a.75.75 0 1 0-1.061 1.061l1.061-1.061zm1.555-6.286a8.9 8.9 0 0 1-8.901 8.901v1.5c5.744 0 10.401-4.657 10.401-10.401h-1.5zm-8.901 8.901a8.9 8.9 0 0 1-8.901-8.901h-1.5c0 5.744 4.657 10.401 10.401 10.401v-1.5zm-8.901-8.901a8.9 8.9 0 0 1 8.901-8.901v-1.5c-5.744 0-10.401 4.657-10.401 10.401h1.5zm8.901-8.901a8.9 8.9 0 0 1 8.901 8.901h1.5c0-5.744-4.657-10.401-10.401-10.401v1.5zm12.594 20.434-5.248-5.248-1.061 1.061 5.248 5.248 1.061-1.061z"/></symbol><symbol id="icon-shopping-bag" viewBox="0 0 32 32"><path fill="none" stroke="#ebebeb" style="stroke:var(--color3,#ebebeb)" stroke-linejoin="round" stroke-linecap="round" stroke-width="1.5" d="m5.714 10.057 3.238-4.343h12.952l3.238 4.343m-19.428 0v15.2c0 .576.227 1.128.632 1.535s.954.636 1.526.636h15.111c.573 0 1.122-.229 1.526-.636s.632-.959.632-1.535v-15.2m-19.427 0h19.429M19.746 14.4c0 1.152-.455 2.256-1.265 3.071a4.303 4.303 0 0 1-6.106 0 4.355 4.355 0 0 1-1.264-3.071"/></symbol><symbol id="icon-logo" viewBox="0 0 32 32"><path d="M15.547.019c-.019.011-.117.022-.219.022s-.192.011-.2.025c-.008.011-.2.025-.422.028-.225.003-.422.014-.439.028s-.131.033-.253.042a6.92 6.92 0 0 0-.778.1 3.243 3.243 0 0 1-.319.044.523.523 0 0 0-.181.042c-.014.014-.058.025-.1.025s-.086.011-.094.028c-.008.014-.067.028-.125.028s-.114.011-.122.025c-.008.014-.056.031-.106.039s-.142.028-.203.047c-.061.019-.153.039-.203.047s-.097.025-.106.039c-.008.014-.039.025-.069.025-.053 0-.397.106-.539.167l-.153.056-.153.056-.181.069a1.64 1.64 0 0 0-.172.072.234.234 0 0 1-.081.025c-.019 0-.092.025-.161.058s-.178.081-.239.108c-.061.025-.256.119-.431.206s-.333.156-.35.156c-.017 0-.047.017-.067.039a1.19 1.19 0 0 1-.231.142c-.111.056-.211.119-.222.142s-.047.039-.078.039a.313.313 0 0 0-.144.064l-.144.094c-.256.153-.433.269-.461.303-.017.022-.056.039-.083.039s-.072.033-.097.072a.536.536 0 0 1-.161.128 1.792 1.792 0 0 0-.35.233 1.032 1.032 0 0 1-.147.1 1.058 1.058 0 0 0-.181.131c-.247.217-.467.392-.489.392a.785.785 0 0 0-.169.131 5.977 5.977 0 0 1-.292.258 10.09 10.09 0 0 0-.417.394c-.147.15-.281.272-.297.272-.031 0-.3.278-.414.428-.089.122-.103.136-.503.55-.158.161-.286.3-.286.314a.514.514 0 0 1-.086.122 6.896 6.896 0 0 0-.428.544c-.053.075-.131.181-.178.233s-.086.111-.086.128-.031.061-.069.097-.069.083-.069.103c0 .022-.019.044-.042.053-.022.011-.042.033-.042.053 0 .017-.036.072-.083.119-.044.05-.083.106-.083.128s-.019.044-.042.056c-.022.008-.042.033-.042.053 0 .022-.036.089-.081.15s-.111.167-.147.231c-.1.186-.125.225-.158.258a.129.129 0 0 0-.031.078c0 .028-.031.083-.067.128-.036.042-.1.147-.142.231s-.086.158-.097.167c-.011.008-.042.058-.067.111s-.064.128-.086.167a3.616 3.616 0 0 1-.123.236.318.318 0 0 0-.056.131c-.003.025-.033.094-.072.15s-.069.122-.069.147a.122.122 0 0 1-.031.078c-.033.033-.131.256-.222.506a3.181 3.181 0 0 1-.139.311c-.044.089-.081.186-.081.217s-.011.064-.028.072c-.014.008-.028.039-.028.064s-.019.083-.042.128a.38.38 0 0 0-.042.117.241.241 0 0 1-.025.089c-.069.136-.114.264-.114.325a.307.307 0 0 1-.025.119c-.067.133-.169.447-.169.519 0 .033-.011.069-.025.083a.59.59 0 0 0-.056.167 17.78 17.78 0 0 1-.144.639 8.43 8.43 0 0 0-.078.375c-.017.083-.042.208-.058.278-.103.414-.114.725-.083 2.361.028 1.594.039 1.792.086 1.819.014.011.025.042.025.072 0 .028.011.075.025.103.017.025.061.142.103.256.094.267.45.953.611 1.183.067.094.122.183.122.194 0 .017.114.153.267.319.058.064.053.272-.008.292a1.071 1.071 0 0 0-.15.069c-.056.028-.119.053-.139.053s-.056.019-.081.042c-.042.039-.042.072 0 .453.028.228.056.43.067.447.022.036.039.108.064.295a.341.341 0 0 0 .039.136c.014.017.025.05.025.078s.011.075.028.106c.014.031.042.081.056.111s.028.07.028.089c0 .042.039.125.258.564.253.503.308.608.431.786.064.094.117.178.117.189 0 .008.042.067.092.13s.117.164.144.222a.836.836 0 0 0 .147.189c.047.044.089.103.089.125 0 .025.033.086.075.136.044.05.122.156.175.236.053.078.15.211.217.292.064.083.117.158.117.17 0 .008.042.064.089.122.05.056.111.131.133.164.022.036.064.094.089.128.028.036.05.075.05.089s.033.056.072.094c.039.036.094.111.122.164s.075.122.108.15c.033.031.058.064.058.078s.031.067.069.117.069.1.069.111c0 .011.025.055.058.094.15.192.247.383.247.481 0 .058-.014.108-.033.114-.017.006.039.086.128.178.492.508.614.633.867.872.261.245.336.308.497.417.033.022.133.089.219.15.164.111.211.117.153.022-.122-.197.208-.189.394.011.067.072.292.233.325.233.008 0 .056.039.103.083a1.2 1.2 0 0 0 .2.147c.136.072.486.278.606.353.047.031.181.106.297.164.117.061.219.125.231.142.008.014.072.042.139.058.069.017.139.047.156.069s.047.039.067.039c.022 0 .128.044.239.097.114.053.225.097.247.097.025 0 .056.011.069.025a.425.425 0 0 0 .125.053c.092.028.364.122.486.169.094.036.244.089.383.131.333.1.419.122.481.122.033 0 .069.011.078.025s.056.031.106.039.186.036.3.061c.203.045.311.067.597.122.078.014.203.028.278.028.078.003.153.014.167.028.017.014.197.036.403.047.206.008.389.028.403.039.078.061 2.422.017 2.519-.044.019-.014.186-.033.369-.045.311-.019.478-.036 1.028-.105l.375-.042a.947.947 0 0 0 .208-.042c.031-.014.131-.031.222-.039.292-.025.444-.05.472-.075.014-.014.078-.025.142-.025.067 0 .128-.011.136-.028.008-.014.058-.028.108-.028.047 0 .1-.011.114-.025a.424.424 0 0 1 .153-.042 3.62 3.62 0 0 0 .542-.1c.094-.028.164-.044.403-.094.022-.006.092-.017.153-.028.061-.014.15-.033.194-.045a4.436 4.436 0 0 0 .389-.111.705.705 0 0 1 .125-.039c.039-.005.114-.025.167-.042l.319-.086c.122-.033.261-.069.306-.083a17.1 17.1 0 0 1 .48-.131c.033-.008.07-.025.078-.039s.042-.025.078-.025a.17.17 0 0 0 .086-.022.574.574 0 0 1 .153-.061c.069-.022.139-.047.153-.056a.914.914 0 0 1 .236-.072c.036-.008.4-.133.528-.186l.222-.075c.1-.033.225-.083.281-.114a.534.534 0 0 1 .136-.053c.017 0 .072-.031.122-.069s.1-.07.108-.07c.017 0 .294-.164.547-.319l.236-.147c.169-.105.328-.219.419-.303a.801.801 0 0 1 .158-.108c.081-.042.189-.122.333-.247.025-.022.056-.042.067-.042.008 0 .083-.058.164-.133.078-.072.178-.155.219-.186.295-.214 1.356-1.225 1.458-1.383.025-.042.183-.217.35-.389.178-.183.325-.358.356-.428.028-.067.075-.125.103-.133.031-.011.053-.031.053-.044 0-.017.028-.056.064-.092.106-.108.408-.52.561-.761l.055-.078a1.54 1.54 0 0 0 .111-.175c.047-.078.092-.142.103-.142s.053-.058.092-.133c.039-.072.094-.169.125-.214a2.2 2.2 0 0 0 .111-.197c.031-.064.075-.131.097-.15s.042-.047.042-.061c0-.017.106-.228.236-.469s.236-.456.236-.478c0-.022.019-.056.042-.075s.042-.053.042-.072.044-.128.097-.236c.053-.111.097-.214.097-.231s.044-.122.097-.231c.053-.111.097-.211.097-.228a.4.4 0 0 1 .042-.103.397.397 0 0 0 .042-.131c0-.025.011-.069.025-.097a3.06 3.06 0 0 0 .17-.472c0-.019.011-.056.025-.083.039-.078.169-.494.169-.539 0-.025.028-.122.058-.219.056-.164.094-.336.167-.706.014-.078.033-.169.042-.208s.022-.117.031-.175c.008-.056.025-.111.039-.119s.025-.075.025-.15.014-.144.028-.153.028-.069.028-.133a3.009 3.009 0 0 1 .069-.533c.031-.156.081-1.175.1-1.958 0-.1-.005-.225-.017-.283-.011-.056-.008-.122.008-.15.017-.031.017-.072.003-.106s-.039-.239-.053-.461a14.302 14.302 0 0 0-.111-1.083 10.065 10.065 0 0 1-.044-.347c-.008-.078-.025-.164-.039-.194s-.031-.106-.039-.167c-.005-.061-.028-.167-.044-.236s-.042-.181-.056-.25c-.044-.228-.058-.292-.083-.347a.8.8 0 0 1-.039-.125c-.006-.039-.028-.119-.045-.181s-.042-.164-.055-.228a5.263 5.263 0 0 0-.12-.389l-.186-.536a5.622 5.622 0 0 0-.111-.319 8.426 8.426 0 0 0-.208-.494.437.437 0 0 1-.042-.106c0-.092-1.247-2.575-1.356-2.7-.044-.05-.067-.086-.164-.261a.626.626 0 0 0-.103-.144c-.025-.022-.044-.05-.044-.064s-.07-.114-.153-.225l-.242-.322a6.828 6.828 0 0 0-.322-.375l-.281-.308a28.874 28.874 0 0 0-.967-.922 2.706 2.706 0 0 0-.294-.231c-.058-.033-.103-.072-.103-.086s-.022-.036-.047-.044c-.028-.011-.131-.083-.231-.161s-.253-.189-.339-.244c-.086-.058-.167-.117-.175-.131s-.069-.053-.133-.083a1.76 1.76 0 0 1-.228-.139 1.537 1.537 0 0 0-.225-.139.584.584 0 0 1-.153-.1c-.022-.028-.092-.072-.156-.1s-.125-.064-.133-.078a.685.685 0 0 0-.161-.097 3.844 3.844 0 0 1-.5-.286c-.075-.047-.158-.089-.186-.089s-.061-.014-.072-.031c-.008-.017-.133-.089-.275-.158a78.886 78.886 0 0 0-1.431-.708c-.144-.067-.397-.189-.561-.267a6.227 6.227 0 0 0-.417-.183c-.308-.111-.617-.208-.661-.208-.028 0-.061-.014-.069-.028-.008-.017-.044-.028-.078-.028s-.111-.019-.172-.042a.9.9 0 0 0-.214-.042c-.056 0-.108-.011-.117-.025s-.064-.033-.119-.042c-.175-.031-.239-.042-.369-.075a2.166 2.166 0 0 0-.222-.042.66.66 0 0 1-.139-.033c-.022-.008-.167-.033-.319-.053s-.353-.05-.444-.067a3.439 3.439 0 0 0-.347-.039L17.4.05c-.411-.033-1.814-.053-1.856-.025zM18.056.6c.544.072.661.108 1.044.322.203.111.389.211.417.222.114.039.336.217.425.339.239.317.322.531.211.531-.019 0-.139-.031-.267-.069a44.29 44.29 0 0 0-.719-.194c-.267-.072-.528-.147-.578-.169s-.103-.033-.117-.025c-.011.008-.139-.017-.283-.053a23.184 23.184 0 0 0-.689-.156c-.236-.047-.439-.094-.453-.103s-.281-.022-.589-.028c-.697-.017-1.672.042-2.208.131l-.347.056c-.106.017-.281.05-.386.072-.144.031-.197.033-.228.008-.053-.044-.047-.1.011-.133.139-.075 1.192-.397 1.539-.472a.55.55 0 0 0 .139-.05c.019-.017.106-.036.189-.044s.333-.044.553-.086c.35-.061.697-.103 1.211-.139a9.71 9.71 0 0 1 1.125.042zm-1.075.853a.838.838 0 0 0 .197.061c.089.022.206.067.258.103s.111.064.133.064c.019 0 .072.031.117.067a.89.89 0 0 0 .461.197c.086.011.167.031.175.044s.056.025.108.025c.053 0 .103.011.111.028.008.014.044.028.078.028.083-.003.242.028.311.053.081.033.314.092.458.114.069.011.231.056.361.097s.275.083.319.094l.264.081c.1.033.294.092.431.133.139.039.269.081.292.092s.117.044.208.072.192.067.222.089a.28.28 0 0 0 .128.036c.039 0 .133.031.208.069s.153.069.169.069c.019 0 .089.025.153.053.067.031.175.075.245.1.169.067.297.119.433.183.061.028.125.053.139.053s.156.061.311.139c.155.075.297.139.308.139.039 0 .583.3.614.336.008.011.064.05.122.092.122.081.269.206.525.439.094.089.186.161.2.161.017 0 .081.05.139.114.061.064.155.144.208.181.147.097 1.305 1.253 1.305 1.3 0 .011.1.131.222.264.122.136.222.253.222.264 0 .031.228.322.25.322.011 0 .05.053.083.117.033.067.097.164.142.219s.08.111.08.122.047.089.106.175c.136.206.142.214.261.442.056.106.12.206.142.225.036.031.078.119.175.372.056.144.142.342.195.444a.32.32 0 0 1 .039.128c0 .033.011.064.022.072s.039.078.061.156.05.147.061.156.022.05.022.092.008.086.02.097c.03.028.092.219.092.286 0 .033.011.067.025.075.025.017.047.117.075.336.008.061.025.136.039.167s.033.111.042.181.028.225.045.347c.036.281.075 1.706.047 1.769-.036.081-.036 1.078-.003 1.314a15.605 15.605 0 0 0 .164.958.803.803 0 0 0 .039.153c.014.031.031.131.042.222.008.092.031.242.047.333.014.092.033.272.042.403a.992.992 0 0 0 .033.258c.014.014.033-.075.044-.194s.031-.231.042-.244c.033-.042.075-.433.1-.931.008-.161.025-.306.039-.319.039-.053.056-1.022.025-1.486l-.056-.847c-.083-1.342-.114-1.703-.161-1.917a4.297 4.297 0 0 1-.058-.306 2.222 2.222 0 0 0-.056-.278c-.03-.103-.053-.2-.097-.417a.933.933 0 0 0-.042-.139c-.05-.114-.056-.283-.014-.319.053-.042.153-.008.153.053 0 .025.011.058.025.075a.455.455 0 0 1 .056.136 2 2 0 0 0 .117.297.351.351 0 0 1 .025.131c0 .047.014.092.031.103.033.019.008-.256-.028-.308-.011-.017-.039-.083-.058-.153s-.044-.139-.055-.153a1.567 1.567 0 0 1-.053-.139 2.22 2.22 0 0 0-.164-.403c-.05-.1-.089-.197-.089-.217s-.019-.064-.042-.1a.394.394 0 0 1-.056-.128.262.262 0 0 0-.05-.108 3.301 3.301 0 0 1-.197-.344 5.311 5.311 0 0 0-.472-.758.408.408 0 0 1-.072-.114c0-.017-.025-.05-.055-.078s-.056-.061-.056-.072-.033-.058-.075-.103a3.704 3.704 0 0 1-.169-.203 4.632 4.632 0 0 0-.464-.547c-.419-.45-.606-.656-.708-.783-.136-.167-1.008-1.028-1.042-1.028-.017 0-.103-.075-.194-.167s-.178-.167-.192-.167a.688.688 0 0 1-.156-.119 3.204 3.204 0 0 0-.206-.167.396.396 0 0 1-.108-.122c-.042-.092.031-.153.145-.119.097.028.497.242.572.306.031.028.111.078.178.114.186.1.222.125.289.181.092.081.236.178.264.178.011 0 .064.044.117.097s.108.097.125.097.061.031.097.069.08.069.097.069.086.058.153.128c.069.072.158.15.197.175.103.064.803.739.803.775 0 .017.075.094.167.175s.167.158.167.178c0 .019.025.056.055.083s.056.061.056.075c0 .017.069.106.153.197.083.094.153.183.153.194 0 .028.144.225.175.236a.702.702 0 0 1 .092.139c.036.072.125.217.192.325a3.141 3.141 0 0 1 .184.319.881.881 0 0 1 .055.111c.02.039.086.181.153.319.155.322.261.581.261.631 0 .022.011.05.022.067.014.014.042.081.061.15s.058.169.086.222c.028.053.07.158.095.236.025.075.055.15.067.167.011.014.039.083.058.153s.044.136.055.153c.008.014.033.078.053.139l.055.167.058.139c.017.044.064.178.103.292s.094.256.122.311a.52.52 0 0 1 .053.147c0 .022.011.064.025.092.033.067.119.317.125.367.005.022.017.072.028.106.011.036.028.094.033.125.022.136.044.231.067.283a.686.686 0 0 1 .039.139c.025.15.047.25.072.306.014.031.031.1.042.153.008.053.028.167.045.25.067.369.086.497.097.667.008.1.028.192.042.206.014.017.025.142.028.278 0 .139.011.353.025.475s.028.333.028.472c.003.433-.053 1.411-.086 1.519-.02.056-.025.144-.017.197s.005.108-.008.119a.525.525 0 0 0-.036.164 8.267 8.267 0 0 1-.13.736l-.058.236-.039.175a3.56 3.56 0 0 1-.056.222c-.025.086-.075.264-.114.394-.036.131-.095.311-.125.403s-.07.217-.083.275a2.347 2.347 0 0 1-.083.25 6.18 6.18 0 0 0-.1.253 22.73 22.73 0 0 1-.192.439c-.083.181-.15.344-.15.364s-.02.053-.042.072a.15.15 0 0 0-.045.081c0 .025-.025.08-.055.128a1.149 1.149 0 0 0-.07.125c-.05.125-.336.672-.411.792a4.113 4.113 0 0 0-.239.422.477.477 0 0 1-.083.133c-.025.017-.194.258-.194.278s-.169.261-.194.278a.494.494 0 0 0-.083.133c-.083.172-.22.353-.295.386-.086.042-.15.011-.15-.072 0-.081.17-.403.25-.475.031-.028.056-.067.056-.083 0-.019.033-.083.072-.142.067-.097.222-.381.483-.878.047-.089.083-.183.083-.211s.025-.075.055-.103a.177.177 0 0 0 .056-.111c0-.031.014-.072.033-.092.031-.031.061-.1.153-.361.025-.064.053-.117.067-.117s.025-.019.025-.042c0-.022.025-.094.053-.161.03-.064.069-.167.086-.228.033-.103.089-.258.139-.389.014-.031.03-.081.039-.111.006-.031.033-.111.058-.181s.047-.15.053-.181c.003-.031.028-.131.055-.222.114-.383.128-.439.128-.503 0-.033.011-.069.025-.081.014-.008.033-.1.044-.203.008-.103.028-.211.042-.242.05-.119.133-.608.175-1.042.019-.192.044-.361.056-.381s.028-.306.036-.639c.008-.344.028-.633.044-.667.036-.075-.003-.439-.047-.439-.028 0-.058.139-.083.361a8.691 8.691 0 0 1-.095.583c-.014.092-.047.272-.072.403-.022.131-.056.322-.07.431a2.09 2.09 0 0 1-.055.258.348.348 0 0 0-.028.128c0 .033-.008.072-.019.083-.014.011-.036.111-.056.219-.017.111-.044.25-.061.311l-.142.569a3.074 3.074 0 0 1-.081.278c-.03.1-.058.208-.058.242s-.011.067-.025.075c-.022.014-.053.133-.072.267a8.933 8.933 0 0 1-.208.625.984.984 0 0 0-.045.15.718.718 0 0 1-.069.189.39.39 0 0 0-.053.131c0 .022-.02.075-.042.117-.022.044-.042.103-.042.128s-.011.056-.028.064c-.014.008-.028.039-.028.064 0 .053-.128.375-.219.553a.624.624 0 0 0-.058.15c0 .033-.295.664-.389.83a9.509 9.509 0 0 0-.181.347c-.069.136-.169.319-.222.403s-.106.172-.117.195c-.025.05-.27.425-.345.533a.453.453 0 0 0-.053.089c0 .025-.164.258-.208.295a.877.877 0 0 0-.122.178 1.718 1.718 0 0 1-.208.267c-.069.067-.128.136-.128.153s-.044.072-.097.125a.43.43 0 0 0-.097.122c-.003.031-.87.914-1.139 1.158-.158.144-.519.442-.728.603l-.175.133c-.053.042-.506.336-.708.458a2.856 2.856 0 0 0-.172.114.313.313 0 0 1-.108.05.14.14 0 0 0-.078.039c-.064.055-.408.239-.447.239a.243.243 0 0 0-.106.053c-.042.028-.155.083-.255.125s-.267.119-.372.172a3.121 3.121 0 0 1-.444.181 2.74 2.74 0 0 0-.295.106c-.025.014-.086.033-.139.044s-.108.028-.125.039a.9.9 0 0 1-.278.086.159.159 0 0 0-.083.022.574.574 0 0 1-.153.061 1.524 1.524 0 0 0-.208.083 3.517 3.517 0 0 1-.375.139c-.158.05-.275.097-.256.105.036.011.283-.028.575-.092.108-.025.225-.047.264-.053s.125-.025.194-.042c.156-.042.297-.078.397-.103.042-.008.083-.028.092-.042s.05-.025.094-.025c.045 0 .089-.014.097-.028.008-.017.039-.028.067-.028s.067-.019.086-.042a.135.135 0 0 1 .086-.042c.072 0 .53-.214.672-.314.061-.044.156-.086.456-.197a.56.56 0 0 0 .139-.078c.028-.022.144-.092.258-.15s.264-.144.333-.194c.153-.106.311-.142.358-.083.05.058.017.133-.089.2-.05.031-.164.106-.256.167-.603.406-.683.453-.739.456a.235.235 0 0 0-.111.05c-.097.075-.644.35-.886.444-.114.044-.278.111-.361.144s-.183.067-.222.075a.686.686 0 0 0-.131.039 5.421 5.421 0 0 0-.125.05 1.3 1.3 0 0 1-.147.044c-.045.008-.139.031-.208.045-.125.028-.286.058-.597.111-.494.083-1.986.119-2.236.053a4.242 4.242 0 0 0-.389-.053 5.88 5.88 0 0 1-.833-.128 25.335 25.335 0 0 0-.333-.07c-.253-.05-.442-.1-.461-.119-.011-.011-.061-.019-.111-.019-.072 0-.092-.011-.1-.064-.008-.056-.025-.061-.258-.075a1.441 1.441 0 0 1-.528-.114 4.294 4.294 0 0 0-.292-.094 12.587 12.587 0 0 1-.333-.111 3.08 3.08 0 0 0-.292-.097 2.608 2.608 0 0 1-.328-.125.594.594 0 0 0-.183-.069c-.031 0-.061-.011-.069-.025a.546.546 0 0 0-.147-.07 5.201 5.201 0 0 1-.461-.2c-.075-.036-.147-.067-.161-.067s-.172-.069-.347-.153a3.221 3.221 0 0 0-.358-.153c-.022 0-.047-.011-.056-.028-.014-.025-.058-.047-.306-.15a16.396 16.396 0 0 1-.681-.325c-.022-.014-.086-.044-.139-.069s-.117-.056-.139-.069l-.461-.228c-.23-.114-.431-.222-.439-.239-.011-.017-.05-.031-.086-.031s-.075-.014-.086-.031a4.016 4.016 0 0 0-.544-.275c-.006 0-.011.033-.008.075 0 .075-.006.078-.139.075a.645.645 0 0 1-.261-.061.615.615 0 0 0-.172-.061c-.025 0-.061-.02-.081-.042s-.056-.042-.083-.042c-.025 0-.081-.025-.119-.056s-.081-.056-.094-.056c-.011 0-.114-.061-.228-.139a1.533 1.533 0 0 0-.233-.139.505.505 0 0 1-.131-.089 3.078 3.078 0 0 0-.319-.244 3.784 3.784 0 0 1-.306-.231c-.05-.042-.097-.075-.106-.075s-.019.033-.025.075c-.006.061-.025.081-.081.086s-.094-.02-.186-.125c-.064-.072-.147-.17-.186-.211a.4.4 0 0 1-.069-.094 1.38 1.38 0 0 0-.158-.192 4.707 4.707 0 0 1-.222-.253c-.158-.2-.289-.364-.367-.453-.153-.178-.225-.272-.225-.294a.497.497 0 0 0-.094-.122 3.498 3.498 0 0 1-.228-.292c-.072-.108-.175-.25-.231-.319s-.111-.147-.128-.172c-.014-.025-.125-.189-.242-.364a4.833 4.833 0 0 1-.236-.37.596.596 0 0 0-.075-.136 1.577 1.577 0 0 1-.161-.264.58.58 0 0 0-.067-.111 12.05 12.05 0 0 1-.383-.75 23.764 23.764 0 0 1-.464-.958c-.206-.603-.236-.786-.136-.811.031-.008.056-.017.056-.022 0-.003-.125-.128-.278-.278-.153-.153-.278-.286-.278-.3 0-.039-.186-.278-.417-.533a2.103 2.103 0 0 1-.356-.533c-.083-.164-.194-.389-.25-.494l-.103-.194-.006-.539c-.006-.297.003-.553.017-.569s.033-.219.044-.447c.011-.231.031-.431.042-.444.011-.017.031-.147.042-.292s.031-.278.042-.292c.011-.017.031-.097.039-.181s.022-.183.031-.222c.017-.081.058-.306.086-.444.011-.053.031-.111.044-.131s.019-.058.008-.089c-.008-.028-.003-.061.014-.072.014-.008.028-.044.028-.078s.025-.128.053-.208a2.11 2.11 0 0 0 .058-.167c.011-.069.036-.167.053-.214.061-.158.167-.514.183-.622.011-.069.05-.178.086-.242s.092-.189.125-.281c.033-.089.069-.172.083-.189.014-.014.025-.042.025-.064s.044-.133.097-.247c.053-.114.097-.225.097-.244s.019-.05.042-.069c.022-.019.042-.053.042-.075 0-.031.097-.244.214-.467.017-.031.05-.1.075-.153s.083-.161.128-.236c.103-.178.103-.181.122-.269a.314.314 0 0 1 .075-.131c.05-.044.3-.458.306-.5 0-.008.044-.072.094-.142.053-.069.122-.175.156-.236s.089-.144.128-.186c.039-.039.108-.136.158-.211.161-.256.233-.353.319-.433.047-.047.086-.097.086-.117 0-.017.019-.05.044-.069.025-.022.075-.083.111-.136s.242-.275.461-.494c.531-.531.622-.617.653-.617.014 0 .106-.081.203-.181s.189-.181.203-.181c.014 0 .072-.047.128-.106s.156-.142.225-.189c.067-.044.167-.122.222-.172.053-.047.147-.125.208-.172.189-.139.453-.342.619-.475.089-.072.206-.15.258-.178.05-.028.1-.058.108-.067.033-.042.244-.194.333-.239a.402.402 0 0 0 .119-.086.4.4 0 0 1 .136-.097.668.668 0 0 0 .147-.092 1.56 1.56 0 0 1 .15-.1c.067-.039.178-.108.247-.153.072-.047.244-.139.381-.206l.303-.147c.028-.014.122-.05.214-.078.089-.028.189-.069.225-.092s.119-.05.189-.058a.497.497 0 0 0 .153-.042.768.768 0 0 1 .153-.056l.231-.075c.056-.022.15-.05.208-.064.056-.017.153-.042.214-.058s.161-.042.222-.056c.061-.014.161-.039.222-.056.139-.039.375-.072.672-.092a1.32 1.32 0 0 0 .283-.044c.031-.017.106-.031.167-.031s.175-.025.253-.056a.826.826 0 0 1 .25-.056.394.394 0 0 0 .211-.069.387.387 0 0 1 .142-.069.244.244 0 0 0 .086-.025c.111-.056.761-.292.908-.328.053-.011.078-.022.244-.089.081-.033.2-.061.353-.078a.425.425 0 0 0 .153-.039c.014-.014.094-.025.181-.025a.469.469 0 0 0 .194-.031c.05-.036.958-.014 1.008.025z"/><path d="M13.25 8.128c-.231.025-.467.058-.778.108l-.347.058a2.055 2.055 0 0 0-.292.064c-.092.031-.097.039-.089.144.017.172.033.181.356.172.4-.011.383-.036.4.583.008.269.003 1.172-.011 2.006s-.025 1.664-.028 1.847l-.003.333.153-.006c.083 0 .217-.006.292-.011a1.62 1.62 0 0 1 .333.025c.269.05.928.047 1.153-.006.869-.203 1.5-.736 1.844-1.561.094-.228.119-.297.186-.581.108-.444.103-1.197-.008-1.611-.125-.472-.389-.889-.703-1.114-.275-.197-.547-.311-.958-.403-.281-.064-1.128-.092-1.5-.05zm1.181.464c.536.144.872.422 1.092.903.125.267.228.822.228 1.214 0 .325-.108 1.022-.172 1.097a.119.119 0 0 0-.022.061c0 .072-.161.386-.289.556-.364.497-1.047.739-1.814.647a1.602 1.602 0 0 1-.294-.053c-.011-.011-.008-.614.008-1.339s.036-1.725.044-2.225l.017-.908.131-.011c.278-.028.875.006 1.072.058zM18.347 9.989c-.044.017-.128.042-.181.058-.336.1-.694.361-.803.586-.122.253-.05.528.164.639.156.078.528.017.528-.086a.888.888 0 0 0-.072-.192c-.125-.256-.086-.475.1-.572.075-.039.15-.047.339-.042.219.008.247.017.344.094.172.139.217.258.228.603.011.339-.006.381-.156.381-.233 0-.675.097-.936.208-.25.106-.322.153-.489.317-.214.214-.303.408-.303.667 0 .247.067.433.208.575.406.406 1.006.256 1.478-.372l.161-.214.019.122c.053.311.269.556.542.611.292.061.625-.033.864-.247.106-.097.108-.117.033-.217l-.058-.078-.158.078c-.186.089-.294.097-.411.025-.203-.125-.231-.342-.181-1.408.036-.742.022-.922-.094-1.147a.757.757 0 0 0-.347-.342c-.106-.053-.172-.064-.431-.069a2.024 2.024 0 0 0-.389.022zm.584 1.828c.025.042-.094.361-.197.533s-.314.383-.458.456c-.106.056-.314.064-.372.014a.525.525 0 0 1-.083-.183.4.4 0 0 1 0-.3c.053-.181.167-.303.367-.397.244-.114.703-.189.744-.122zM29.844 10.819c.008.069.028.2.045.292.044.236.083.55.1.786.014.186.022.203.094.242.106.053.128.017.086-.136a2.52 2.52 0 0 1-.1-.419 1.448 1.448 0 0 0-.039-.208 3.984 3.984 0 0 1-.117-.458c-.042-.206-.092-.275-.07-.097zM16.064 15.472c-.164.069-.167.092-.2 1-.017.458-.042 1.133-.058 1.5-.014.367-.039 1.097-.056 1.625s-.042 1.2-.058 1.494c-.019.358-.022.547-.003.567.033.033.528-.025.581-.067.017-.014.042-.097.05-.183.039-.342.106-.633.256-1.086.283-.864.731-1.447 1.114-1.447.289 0 .297.336.017.622a2.454 2.454 0 0 1-.733.461c-.125.05-.233.108-.242.128-.017.044.114.286.403.756.261.419.428.631.586.742.211.147.525.106.994-.131.264-.133.322-.189.3-.28-.025-.097-.111-.147-.192-.108a.882.882 0 0 1-.483.094c-.161-.008-.433-.314-.761-.853-.122-.2-.128-.189.172-.386.325-.217.558-.464.675-.711a.734.734 0 0 0 .086-.403c0-.2-.006-.233-.078-.339a.548.548 0 0 0-.231-.192c-.133-.067-.169-.072-.333-.056-.225.022-.328.064-.553.228-.289.206-.6.617-.822 1.086-.178.378-.178.381-.133-.45.017-.289.042-.703.058-.917.014-.214.039-.553.053-.75.025-.372.053-.683.125-1.442.025-.244.033-.45.022-.461-.092-.083-.408-.106-.556-.042zM8.569 16.444a3.678 3.678 0 0 1-.319.042 9.47 9.47 0 0 0-.797.108c-.553.092-.564.097-.564.214 0 .197.025.211.333.192.267-.019.275-.019.342.047.056.056.072.108.089.275.036.386-.011 3.011-.075 4.303l-.008.153.139-.003c.078-.003.228-.008.333-.014a4.51 4.51 0 0 1 .514.02c.444.044.917-.017 1.267-.161.511-.211.839-.592.944-1.097a1.328 1.328 0 0 0 0-.608 1.14 1.14 0 0 0-.336-.611 1.563 1.563 0 0 0-.756-.4c-.097-.022-.175-.047-.175-.056s.083-.056.183-.108c.331-.172.614-.481.722-.794.067-.194.069-.617.003-.811-.1-.289-.394-.522-.797-.633-.144-.042-.981-.086-1.042-.056zm.653.445c.2.061.417.275.469.464.061.214.031.617-.058.786-.172.333-.572.556-1.097.611-.169.019-.172.017-.192-.053-.008-.039-.006-.467.008-.953l.022-.883.083-.019c.136-.031.6-.003.764.047zm.031 2.328c.356.114.569.289.697.572.072.156.081.206.083.464 0 .336-.047.519-.186.711-.169.233-.408.355-.8.414-.217.031-.731.008-.758-.036-.019-.028.039-2.028.061-2.131l.014-.067.381.017c.214.008.436.033.508.056zM22.961 16.569a.313.313 0 0 0-.111.189c-.033.214-.1.753-.128 1.019a5.256 5.256 0 0 1-.05.403c-.02.117-.028.125-.131.144-.194.042-.303.083-.397.153-.075.056-.092.086-.083.156l.008.089.153-.014c.083-.006.208-.011.278-.014.108 0 .125.008.119.056-.003.031-.022.336-.039.681-.045.917 0 1.486.147 1.794a.676.676 0 0 0 .389.347c.186.05.65-.008.733-.095a.09.09 0 0 1 .056-.019c.053 0 .536-.283.553-.328.017-.047-.058-.197-.114-.22-.022-.008-.092.011-.158.042-.278.128-.517.161-.678.092-.106-.042-.203-.186-.25-.364-.036-.136-.044-1.328-.014-1.75l.02-.236h.433c.364 0 .444-.008.505-.05.089-.058.114-.144.081-.272-.019-.083-.033-.094-.106-.086-.044.003-.242.011-.439.019-.339.011-.483-.011-.447-.069.008-.011.025-.144.042-.297.05-.522.117-1 .181-1.278.017-.078.011-.092-.064-.131a.621.621 0 0 0-.239-.044c-.13 0-.167.011-.25.083zM20.45 18.222c-.544.178-1.008.669-1.169 1.236a1.578 1.578 0 0 1-.064.192c-.044.117-.061.7-.025.867.119.522.4.886.822 1.067.169.069.547.086.761.031a1.6 1.6 0 0 0 .833-.556c.153-.194.147-.258-.019-.347-.061-.031-.078-.022-.217.108-.286.27-.658.372-.933.256-.319-.139-.519-.439-.603-.908-.036-.197-.008-.236.175-.236.064 0 .158-.011.211-.025s.172-.039.264-.058c.233-.05.547-.156.714-.239.189-.094.408-.303.472-.447a.67.67 0 0 0-.15-.747c-.178-.169-.308-.214-.647-.222-.208-.006-.344.003-.425.031zm.356.389c.1.05.18.167.205.289.053.286-.169.506-.636.622a5.22 5.22 0 0 1-.489.103c-.067 0 .008-.375.122-.597.183-.364.539-.55.797-.417zM11.917 18.361a7.06 7.06 0 0 0-.667.203c-.181.067-.211.147-.106.264.064.072.064.072.217.033.083-.022.203-.042.269-.042.114 0 .117.003.15.117.022.092.022.289-.006.828-.022.389-.039.869-.039 1.069 0 .317.008.381.067.519.214.52.825.586 1.272.139.178-.178.306-.375.483-.736.078-.164.153-.297.164-.297.014 0 .028.142.033.311.014.369.075.558.247.753.15.172.3.228.558.205.228-.019.428-.105.608-.267l.119-.105-.064-.103c-.036-.055-.072-.097-.083-.092a5.216 5.216 0 0 0-.181.086c-.161.075-.169.075-.267.03-.111-.05-.169-.133-.233-.322-.106-.328-.125-.845-.072-1.967.025-.494.022-.603-.008-.633s-.083-.033-.278-.008c-.328.039-.325.039-.325.192 0 .072-.011.2-.025.283a7.694 7.694 0 0 0-.058.353c-.114.711-.419 1.475-.706 1.767-.197.2-.403.247-.525.122-.106-.106-.117-.217-.075-.903.022-.364.042-.875.042-1.133 0-.528-.019-.594-.2-.669-.103-.044-.108-.044-.314.003zM21.939 24.486c-.136.072-.189.156-.189.292 0 .095.017.131.106.217.117.114.197.128.336.058a.316.316 0 0 0 .144-.169c.047-.108.047-.131.014-.197-.05-.094-.181-.217-.253-.236-.031-.008-.103.008-.158.036zM25.769 24.642a2.39 2.39 0 0 1-.319.122 3.818 3.818 0 0 0-.353.133c-.031.017-.156.064-.278.105s-.247.092-.278.114a.236.236 0 0 1-.092.036c-.036 0-.175.075-.561.297-.07.039-.145.094-.167.119s-.086.07-.139.097c-.108.056-.133.075-.503.361-.058.045-.181.139-.275.208-.092.07-.272.211-.403.32-.322.269-.528.43-.672.53-.067.047-.161.122-.211.167s-.144.12-.214.164a12.942 12.942 0 0 1-.681.455c-.117.075-.125.086-.056.069.047-.011.139-.044.208-.075.069-.028.189-.075.27-.103.211-.075.48-.192.789-.342.114-.056.222-.103.236-.103s.094-.036.178-.08c.475-.247.658-.347.694-.378a.821.821 0 0 1 .139-.08 2.15 2.15 0 0 0 .408-.247 1.17 1.17 0 0 1 .156-.103c.05 0 .708-.467.958-.678a2.79 2.79 0 0 1 .228-.178c.111-.072.386-.314.522-.458a.597.597 0 0 1 .155-.131c.02 0 .1-.075.183-.169.083-.092.158-.172.164-.181.019-.019-.069-.014-.089.006zM7.472.053c0 .086.122.261.214.306.228.108.425-.011.425-.261V.015h-.319c-.256 0-.319.008-.319.039zM16.986 31.458c-.008.014-.042.028-.069.028-.125 0-.425.233-.531.414l-.056.094.547-.017c.3-.011.689-.019.864-.019.356 0 .344.022.125-.225-.117-.128-.236-.2-.453-.269-.119-.042-.406-.045-.428-.006z"/></symbol><symbol id="icon-arrow-top" viewBox="0 0 32 32"><path d="M16 5.333a1.333 1.333 0 0 1 0-2.666c7.364 0 13.333 5.969 13.333 13.333S23.364 29.333 16 29.333 2.667 23.364 2.667 16v-.005c0-5.048 2.806-9.441 6.944-11.703l.07-.035A1.333 1.333 0 0 1 10.954 6.6l-.007.003c-3.37 1.837-5.618 5.354-5.618 9.396 0 5.891 4.776 10.667 10.667 10.667s10.667-4.776 10.667-10.667c0-5.89-4.773-10.664-10.662-10.667zm-1.333 7.219-3.057 3.057a1.333 1.333 0 1 1-1.885-1.885l5.334-5.334c.84-.84 2.276-.245 2.276.943v13.333a1.333 1.333 0 0 1-2.666 0V12.551zm4.224.853a1.333 1.333 0 1 1 2.215-1.484l.003.005 1.333 2a1.333 1.333 0 0 1-2.216 1.484l-.003-.005-1.333-2z"/></symbol><symbol id="icon-arrow-right" viewBox="0 0 32 32"><path fill="#03453b" style="fill:var(--color1,#03453b)" d="M31.545 16.514a.728.728 0 0 0 0-1.029l-4.628-4.628a.728.728 0 0 0-1.029 1.029L30.002 16l-4.114 4.114a.728.728 0 0 0 1.029 1.029l4.628-4.628zM0 16.727h31.03v-1.455H0v1.455z"/></symbol><symbol id="icon-arrow-up" viewBox="0 0 32 32"><path fill="#03453b" style="fill:var(--color1,#03453b)" d="M16.514.455a.728.728 0 0 0-1.029 0l-4.628 4.628a.728.728 0 0 0 1.029 1.029L16 1.998l4.114 4.114a.728.728 0 0 0 1.029-1.029L16.515.455zM16.727 32V.97h-1.455V32h1.455z"/></symbol><symbol id="icon-bouquet-1" viewBox="0 0 32 32"><path fill="#ae8646" style="fill:var(--color2,#ae8646)" d="M28.503 6.603a.509.509 0 0 0-.41-.262 7.725 7.725 0 0 0-1.097.009 2.494 2.494 0 0 0-1.216-2.567 2.483 2.483 0 0 0-2.829.244 7.597 7.597 0 0 0-.533-.963.518.518 0 0 0-.432-.225.508.508 0 0 0-.419.25l-.558.966-3.496-2.996a2.386 2.386 0 0 0-3.026-.001l-3.496 2.996-.558-.966a.506.506 0 0 0-.419-.25.516.516 0 0 0-.432.224c-.2.308-.378.629-.532.962a2.488 2.488 0 0 0-2.83-.242 2.494 2.494 0 0 0-1.216 2.567 7.889 7.889 0 0 0-1.098-.01.498.498 0 0 0-.47.506.49.49 0 0 0 .067.242l1.604 2.779a.485.485 0 0 0-.093.233c-.058.59.095 1.181.433 1.668l6.505 9.335a1.483 1.483 0 0 0-.953 1.395v2.225a1.501 1.501 0 0 0 1.974 1.423l.232-.077-1.191 4.808a.49.49 0 0 0 .266.57c.068.033.143.05.219.05h7a.502.502 0 0 0 .489-.395.489.489 0 0 0-.004-.225l-1.191-4.808.232.077c.154.052.316.078.479.079a1.503 1.503 0 0 0 1.495-1.502v-2.225a1.489 1.489 0 0 0-.953-1.395l6.504-9.335a2.492 2.492 0 0 0 .429-1.737.496.496 0 0 0-.07-.197l1.585-2.746a.492.492 0 0 0 .008-.486zm-3.222-1.946a1.49 1.49 0 0 1 .638 1.855 7.655 7.655 0 0 0-2.233.889 7.718 7.718 0 0 0-.336-2.358 1.499 1.499 0 0 1 1.931-.387zM22 4.341a6.726 6.726 0 0 1 .64 3.802 7.81 7.81 0 0 0-1.71 2.052l-.599 1.037c-.108.041-.22.086-.33.129V7.804L22 4.341zm-6.862-2.522a1.363 1.363 0 0 1 1.724.001L20.5 4.938l-.5.867v-.304a.49.49 0 0 0-.237-.426.5.5 0 0 0-.486-.022 7.727 7.727 0 0 0-.944.569A2.493 2.493 0 0 0 16.006 4a2.488 2.488 0 0 0-2.333 1.612 7.71 7.71 0 0 0-.948-.56.499.499 0 0 0-.723.448v.304l-.5-.867 3.638-3.118zm1.406 7.522A6.721 6.721 0 0 1 19 6.367v5.401c-.653.278-1.321.587-2 .935v-.731a7.76 7.76 0 0 0-.456-2.631zm-2.023-3.049a1.49 1.49 0 0 1 2.466-.919c.272.239.447.569.493.928a7.718 7.718 0 0 0-1.472 1.876 7.712 7.712 0 0 0-1.487-1.885zM16 11.972v1.268c-.189.106-.379.219-.569.331A32.376 32.376 0 0 0 13 12.278V6.365a6.694 6.694 0 0 1 3 5.606zm-5.999-7.631 2 3.463v3.999l-.929-1.608a7.79 7.79 0 0 0-1.71-2.051 6.725 6.725 0 0 1 .639-3.804zM6.02 5.567a1.492 1.492 0 0 1 1.152-1.081 1.496 1.496 0 0 1 1.479.555 7.714 7.714 0 0 0-.337 2.362 7.68 7.68 0 0 0-2.232-.89 1.483 1.483 0 0 1-.063-.946zM4.804 7.339a6.69 6.69 0 0 1 5.401 3.356l.287.496a37.658 37.658 0 0 0-4.261-1.38L4.804 7.339zm7.854 17.862a.498.498 0 0 1-.657-.473v-2.225a.5.5 0 0 1 .424-.494.498.498 0 0 1 .233.02l1.642.547c-.103.168-.18.349-.229.54H13.5a.498.498 0 0 0-.5.5.498.498 0 0 0 .5.5h.571c.049.19.126.372.229.54l-1.642.547zm6.203 5.299h-5.722l1.19-4.803.829-.276a1.933 1.933 0 0 0 1.684 0l.829.276 1.19 4.803zM15 23.613c0-.198.059-.391.168-.556s.266-.293.449-.368a.995.995 0 0 1 1.09.217 1.003 1.003 0 0 1 .217 1.09 1.004 1.004 0 0 1-.924.618 1.003 1.003 0 0 1-1-1zm5 1.113a.5.5 0 0 1-.424.494.498.498 0 0 1-.233-.02l-1.642-.547c.103-.168.18-.35.229-.54h.571a.498.498 0 0 0 .5-.5.498.498 0 0 0-.5-.5h-.571a1.978 1.978 0 0 0-.229-.54l1.642-.547a.501.501 0 0 1 .659.475v2.225zm-1.207-3.57-1.952.65a1.944 1.944 0 0 0-1.684 0l-1.951-.65-6.938-9.957a1.458 1.458 0 0 1-.194-.396c2.886.75 9.805 2.993 14.341 8.023l-1.623 2.329zm6.938-9.957-4.724 6.78a23.696 23.696 0 0 0-4.612-3.813 31.403 31.403 0 0 1 9.563-3.475 1.498 1.498 0 0 1-.228.507zm.103-1.501c-1.374.254-2.73.598-4.059 1.03l.02-.034a6.702 6.702 0 0 1 5.401-3.355l-1.362 2.359z"/></symbol><symbol id="icon-bouquet-2" viewBox="0 0 32 32"><path fill="#ae8646" style="fill:var(--color2,#ae8646)" d="M28.769 11.142a.496.496 0 0 0-.18-.436.5.5 0 0 0-.464-.084l-3.418 1.139a14.302 14.302 0 0 0 1.608-6.568v-.982a.487.487 0 0 0-.249-.427.49.49 0 0 0-.495.006l-2.645 1.589c.293-1.352.441-2.732.442-4.115a.484.484 0 0 0-.204-.399.494.494 0 0 0-.442-.067 7.545 7.545 0 0 0-4.403 3.891 9.864 9.864 0 0 0-1.313-1.639l-.66-.66a.491.491 0 0 0-.694 0 12.199 12.199 0 0 0-1.531 1.883A17.218 17.218 0 0 0 11.956.949a.49.49 0 0 0-.684-.068 6.992 6.992 0 0 0-2.64 5.493v.47c0 .042.007.083.008.124a7.16 7.16 0 0 0-3.278-.791H4.211a.499.499 0 0 0-.407.215.494.494 0 0 0-.05.458l.234.585a10.482 10.482 0 0 0 3.919 4.836c.103.405.239.801.407 1.183a12.41 12.41 0 0 0-4.595-.892.491.491 0 0 0-.491.491 7.368 7.368 0 0 0 3.767 6.423.47.47 0 0 0-.32.543l1.613 8.874a2.842 2.842 0 0 0 2.8 2.336h10.807a2.848 2.848 0 0 0 2.8-2.336l1.614-8.874a.494.494 0 0 0-.275-.533.497.497 0 0 0-.208-.046h-2.211c.322-.761.33-1.62.02-2.386a6.914 6.914 0 0 0 5.134-5.911zm-5.892 7.077a2.204 2.204 0 0 1-.75 1.654l-2.536 2.219c-.164.14-.365.229-.579.258a15.713 15.713 0 0 0 2.3-6.701c.336.142.618.386.807.698l.445.742c.205.341.313.732.313 1.13zm-9.069 1.219a5.526 5.526 0 0 0 1.466-1.474h1.017c-.176.472-.271.97-.283 1.474h-2.2zm-4.025-9.333a6.225 6.225 0 0 1 4.396 1.821A6.206 6.206 0 0 1 16 16.322v.429a13.87 13.87 0 0 1-7.044-6.606l-.021-.041h.847zm6.708.612v2.997a7.192 7.192 0 0 0-3.376-3.775 11.237 11.237 0 0 1 2.62-6.177c.502 2.284.755 4.616.756 6.955zm3.329-1.409.218-.272a10.666 10.666 0 0 1 2.853-2.493l1.974-1.184a21.328 21.328 0 0 1-7.342 9.662 10.767 10.767 0 0 1 2.297-5.712zm-2.838 7.183a.492.492 0 0 0 .273-.083l.082-.056a4.465 4.465 0 0 0-.354.399v-.26zm-2.974.367a6.604 6.604 0 0 1-5.179-4.949 14.82 14.82 0 0 0 5.179 4.948zm4.467-.196 1.162-.83c.209-.148.448-.248.7-.292a14.73 14.73 0 0 1-2.211 6.386l-.104.164a1.113 1.113 0 0 1-.167-.176l-.158-.211a3.558 3.558 0 0 1-.67-2.683 3.571 3.571 0 0 1 1.45-2.355l-.002-.001zm2.165-2.136a2.686 2.686 0 0 0-1.425.415 22.244 22.244 0 0 0 5.966-7.794 13.317 13.317 0 0 1-1.408 4.288 7.678 7.678 0 0 1-3.046 3.098c-.029-.001-.058-.006-.088-.006zm-1.523-9.242a6.565 6.565 0 0 1 3.255-3.294 18.477 18.477 0 0 1-.645 4.147 11.544 11.544 0 0 0-2.043 1.812 10.019 10.019 0 0 0-.767-2.215l.2-.449zm-.251 3.665a11.688 11.688 0 0 0-1.393 2.375v-.607a33.431 33.431 0 0 0-.617-6.375 9.03 9.03 0 0 1 2.011 4.607zm-6.692.59a6.99 6.99 0 0 0-.533-.165 27.74 27.74 0 0 1 .226-6.926c.645.888 1.199 1.84 1.653 2.839a12.223 12.223 0 0 0-1.345 4.25l-.001.002zm-2.56-3.167a6.015 6.015 0 0 1 1.219-3.635 28.716 28.716 0 0 0-.194 6.439A7.504 7.504 0 0 0 10 9.131l-.205-.822a6.037 6.037 0 0 1-.181-1.466v-.472zm-4.677.786h.424c1.213 0 2.4.356 3.412 1.025.024.122.038.246.068.367l.143.573h-.845a.491.491 0 0 0-.491.491v.727c0 .178.016.355.028.532a9.508 9.508 0 0 1-2.741-3.715zm5.271 8.881c.283.248.583.475.899.679a13.405 13.405 0 0 1-6.091-3.095c1.407.161 2.772.583 4.025 1.244l.173.092c.296.391.629.753.994 1.08zM4.347 14.34a14.393 14.393 0 0 0 9.597 3.666h.045a4.579 4.579 0 0 1-3.31 1.432h-.083a6.394 6.394 0 0 1-6.249-5.098zm19.38 14.376a1.864 1.864 0 0 1-1.833 1.53H11.087a1.864 1.864 0 0 1-1.832-1.529l-1.508-8.295h8.339c.13.676.412 1.315.823 1.867l.158.21a2.171 2.171 0 0 0 3.171.332l2.536-2.218c.069-.06.133-.126.197-.191h2.265l-1.508 8.295zm-.372-12.605-.201.049-.192-.321a2.706 2.706 0 0 0-.968-.948 8.62 8.62 0 0 0 1.89-1.822l3.768-1.256a5.94 5.94 0 0 1-4.297 4.297z"/></symbol><symbol id="icon-bouquet-3" viewBox="0 0 32 32"><path fill="#ae8646" style="fill:var(--color2,#ae8646)" d="M16 12a1.495 1.495 0 0 0 1.385-.926 1.496 1.496 0 0 0-.325-1.635 1.5 1.5 0 0 0-2.561 1.059 1.5 1.5 0 0 0 1.5 1.5zm0-2a.5.5 0 1 1 .002.998A.5.5 0 0 1 16 10zM20 7a1.495 1.495 0 0 0 1.385-.926 1.496 1.496 0 0 0-.325-1.635 1.5 1.5 0 0 0-2.561 1.059 1.5 1.5 0 0 0 1.5 1.5zm0-2a.5.5 0 1 1 .002.998A.5.5 0 0 1 20 5zM12 7a1.495 1.495 0 0 0 1.385-.926 1.496 1.496 0 0 0-.326-1.635 1.5 1.5 0 0 0-2.561 1.059 1.5 1.5 0 0 0 1.5 1.5zm0-2a.5.5 0 1 1-.192.962.497.497 0 0 1-.308-.462c0-.133.053-.26.147-.353S11.868 5.001 12 5z"/><path fill="#ae8646" style="fill:var(--color2,#ae8646)" d="M28.446 12.774c-.042-.082-.106-.151-.184-.2s-.169-.074-.261-.074H26.86a2.538 2.538 0 0 0-.354-2.338 2.542 2.542 0 0 0-2.13-1.026 2.458 2.458 0 0 0-.29-.527 2.425 2.425 0 0 0-.197-1.832 2.548 2.548 0 0 0 .989-2.89 2.543 2.543 0 0 0-2.501-1.752A2.544 2.544 0 0 0 20.003.498a2.534 2.534 0 0 0-2.373 1.637 2.49 2.49 0 0 0-1.627.524 2.496 2.496 0 0 0-1.626-.524A2.544 2.544 0 0 0 12.004.498a2.545 2.545 0 0 0-2.373 1.637A2.538 2.538 0 0 0 7.13 3.887a2.547 2.547 0 0 0 .989 2.89 2.425 2.425 0 0 0-.197 1.832c-.118.163-.215.34-.29.527a2.55 2.55 0 0 0-2.626 2.543c.001.279.049.556.141.82H4.006a.506.506 0 0 0-.446.274.503.503 0 0 0 .042.522l9.337 12.776-1.897 4.743a.5.5 0 0 0 .464.685h9a.5.5 0 0 0 .464-.685l-1.897-4.743 9.337-12.776a.503.503 0 0 0 .042-.522zm-4.318-2.598c.107-.027.217-.04.327-.041.41.001.802.164 1.092.453a1.542 1.542 0 0 1 .215 1.912H23.5A1.503 1.503 0 0 0 22 11a1.503 1.503 0 0 0-1.5 1.5h-.434a1.995 1.995 0 0 0-.185-.719 2.613 2.613 0 0 0 1.012-1.394A2.563 2.563 0 0 0 23.5 9.69c.007.028.012.056.017.085a.5.5 0 0 0 .611.401zM22.5 12.5h-1a.498.498 0 0 1 .5-.5.498.498 0 0 1 .5.5zm-4.628-9.324a.513.513 0 0 0 .392-.067.503.503 0 0 0 .219-.331 1.54 1.54 0 0 1 3.034 0 .495.495 0 0 0 .408.405.497.497 0 0 0 .203-.007c.107-.027.217-.041.327-.041a1.538 1.538 0 0 1 1.339 2.313 1.537 1.537 0 0 1-.809.678.513.513 0 0 0-.314.348.504.504 0 0 0 .111.455 1.525 1.525 0 0 1 .206 1.77 1.545 1.545 0 0 1-2.009.65 2.536 2.536 0 0 0-2.604-2.211 2.584 2.584 0 0 0-1.56-1.504 2.564 2.564 0 0 0-.153-2.219 1.455 1.455 0 0 1 1.211-.237zm-.354 4.601a.512.512 0 0 0 .218.331.494.494 0 0 0 .391.068l.008-.001a1.538 1.538 0 0 1 .849 2.95.498.498 0 0 0-.203.802c.149.156.248.353.283.566v.006h-6.13a1.02 1.02 0 0 1 .284-.572.496.496 0 0 0 .111-.455.502.502 0 0 0-.314-.348A1.558 1.558 0 0 1 12 9.649a1.523 1.523 0 0 1 .582-1.181 1.533 1.533 0 0 1 1.283-.295l.008.001a.495.495 0 0 0 .391-.068.503.503 0 0 0 .219-.331 1.542 1.542 0 0 1 1.518-1.259 1.544 1.544 0 0 1 1.518 1.259zM8 4.68c.001-.41.164-.802.453-1.092s.682-.453 1.092-.453c.11 0 .22.014.327.041a.513.513 0 0 0 .392-.067.503.503 0 0 0 .219-.331 1.54 1.54 0 0 1 3.034 0 .495.495 0 0 0 .408.405.497.497 0 0 0 .203-.007 1.453 1.453 0 0 1 1.496.499 1.511 1.511 0 0 1 .121 1.839 2.571 2.571 0 0 0-2.118 1.623 2.533 2.533 0 0 0-2.596 2.179l-.008.033A1.537 1.537 0 0 1 8.83 7.886c.016-.354.153-.693.389-.958a.496.496 0 0 0 .111-.455.502.502 0 0 0-.314-.348A1.547 1.547 0 0 1 8 4.68zm-.128 5.496a.484.484 0 0 0 .392-.068.506.506 0 0 0 .219-.333L8.5 9.69a2.554 2.554 0 0 0 2.602.698c.171.566.53 1.057 1.016 1.392-.109.225-.171.47-.185.719h-.434a1.503 1.503 0 0 0-1.5-1.5 1.503 1.503 0 0 0-1.5 1.5H6.237a1.537 1.537 0 0 1 1.634-2.324zM10.5 12.5h-1a.498.498 0 0 1 .5-.5.498.498 0 0 1 .5.5zm9.262 18h-7.523l1.6-4h4.323l1.6 4zm-1.516-5h-4.492l-8.769-12h22.031l-8.769 12z"/></symbol><symbol id="icon-bouquet-4" viewBox="0 0 32 32"><path fill="#ae8646" style="fill:var(--color2,#ae8646)" d="M10.428 9.4a2.056 2.056 0 0 0 4.11-.001 2.056 2.056 0 0 0-4.11 0zm3.081 0c0 .566-.461 1.027-1.027 1.027s-1.027-.461-1.027-1.027c0-.566.461-1.027 1.027-1.027s1.027.461 1.027 1.027zM26.864 7.346c-1.133 0-2.055.921-2.055 2.054a2.056 2.056 0 0 0 4.11-.001 2.056 2.056 0 0 0-2.055-2.054zm0 3.082a1.028 1.028 0 0 1 0-2.054 1.028 1.028 0 0 1 0 2.054z"/><path fill="#ae8646" style="fill:var(--color2,#ae8646)" d="M32 9.4c0-.718-.37-1.363-.957-1.731a2.04 2.04 0 0 0-2.448-2.447c-.368-.588-1.013-.957-1.731-.957s-1.363.37-1.731.959a2.082 2.082 0 0 0-.668-.036 2.048 2.048 0 0 0-.612-.6c.156-.676-.039-1.393-.546-1.901s-1.225-.7-1.901-.546c-.368-.588-1.013-.957-1.731-.957s-1.363.37-1.731.957a2.043 2.043 0 0 0-2.447 2.447 2.047 2.047 0 0 0-.608.597 2.063 2.063 0 0 0-.673.036 2.05 2.05 0 0 0-.752-.708 4.612 4.612 0 0 0-1.601-2.893L9.916-.001 7.971 1.62a4.617 4.617 0 0 0-.948 1.087c-.028-.03-.054-.062-.083-.091a4.866 4.866 0 0 0-3.463-1.435H1.184v2.293c0 1.308.51 2.538 1.435 3.463.018.019.039.034.058.052-.336.22-.644.487-.908.803L.003 9.912l1.766 2.12a4.082 4.082 0 0 0 2.865 1.459 4.872 4.872 0 0 0-.366 1.832v2.293h1.718a11.294 11.294 0 0 0 4.802 5.843l-.073.145a2.7 2.7 0 0 0 0 2.406l.169.338-.169.338a2.7 2.7 0 0 0 0 2.406l.426.852h.318c.607 0 1.195-.119 1.743-.333-.074.242-.14.488-.192.746l-.123.614h.715c.468 0 .909.182 1.24.514s.771.514 1.24.514c.468 0 .909-.182 1.24-.514s.771-.514 1.24-.514l.705-.05-.123-.614a7.227 7.227 0 0 0-.179-.695 4.79 4.79 0 0 0 1.74.332h.317l.426-.852a2.7 2.7 0 0 0 0-2.406l-.169-.338.169-.338a2.7 2.7 0 0 0 0-2.406l-.07-.14a11.37 11.37 0 0 0 5.458-8.932l.031.002c.718 0 1.363-.37 1.731-.957.675.155 1.394-.039 1.901-.546s.702-1.224.546-1.901a2.036 2.036 0 0 0 .958-1.732zM16.289 5.344l.59-.183-.288-.546a1.022 1.022 0 0 1 .176-1.202 1.02 1.02 0 0 1 1.202-.176l.547.288.183-.59c.135-.433.526-.725.974-.725s.84.291.974.725l.183.59.547-.288c.402-.212.886-.14 1.202.176s.387.8.176 1.202l-.288.546.59.183c.433.135.725.526.725.974s-.291.84-.725.974l-.59.183.288.546c.197.375.14.815-.124 1.13a2.567 2.567 0 0 0-1.361-1.557c.282-.352.458-.792.458-1.277a2.056 2.056 0 0 0-4.11 0c0 .692.346 1.302.872 1.675a2.564 2.564 0 0 0-.829 1.449c-.016.003-.031.009-.047.012 0-.018.004-.036.004-.054 0-.718-.37-1.363-.957-1.731a2.036 2.036 0 0 0-.77-2.093 1.09 1.09 0 0 1 .4-.231zm1.843 8.165a1.53 1.53 0 0 1-1.517-1.305c.082-.258.113-.531.088-.803a1.533 1.533 0 0 1 1.428-.974h.514v-.514c0-.85.691-1.541 1.541-1.541s1.541.691 1.541 1.541v.514h.514c.85 0 1.541.691 1.541 1.541s-.691 1.541-1.541 1.541h-.514v.514c0 .85-.691 1.541-1.541 1.541s-1.541-.691-1.541-1.541v-.514l-.514-.001zm-2.057 2.197a13.394 13.394 0 0 0-2.097-1.825 2.11 2.11 0 0 0 .236-.302 2.036 2.036 0 0 0 1.682-.358 2.537 2.537 0 0 0 1.541 1.213c-.486.393-.939.819-1.362 1.272zm3.598-8.36a1.028 1.028 0 0 1 0-2.054 1.028 1.028 0 0 1 0 2.054zm-5.487-1.027c.402-.211.885-.141 1.202.176s.387.8.176 1.202l-.288.546.59.183c.433.135.725.526.725.974s-.291.84-.725.974l-.59.183.288.546c.211.402.14.885-.176 1.202s-.799.388-1.202.176l-.546-.288-.183.59a1.018 1.018 0 0 1-1.948 0l-.183-.59-.546.288a1.019 1.019 0 0 1-1.202-.176 1.022 1.022 0 0 1-.176-1.202l.288-.546-.59-.183a1.018 1.018 0 0 1 0-1.948l.59-.183-.288-.546c-.211-.402-.14-.885.176-1.202s.799-.388 1.202-.176l.546.288.183-.59c.135-.433.526-.725.974-.725s.84.291.974.725l.183.59.546-.288zM8.627 2.41l1.287-1.073 1.288 1.073a3.577 3.577 0 0 1 1.168 1.861 2.03 2.03 0 0 0-1.618.95 2.085 2.085 0 0 0-.324-.044v-1.94H9.401v1.328l-.664-.664-.726.726 1.001 1.001a2.032 2.032 0 0 0-.727 1.919 3.529 3.529 0 0 1-.937-2.401 3.55 3.55 0 0 1 1.281-2.735zM3.343 6.212a3.846 3.846 0 0 1-1.134-2.737V2.209h1.266c1.034 0 2.005.403 2.737 1.134.12.12.229.251.332.386a4.602 4.602 0 0 0-.201 1.888L3.6 2.874l-.726.726 2.797 2.797a4.112 4.112 0 0 0-.754-.079c-.419 0-.829.068-1.219.189-.121-.095-.245-.186-.355-.295zm-.787 5.164L1.338 9.913l1.218-1.462a3.068 3.068 0 0 1 2.362-1.106c1.03 0 1.983.522 2.55 1.37a2.03 2.03 0 0 0-.121.685h-.815l-1.39-1.39-.726.726.664.664H3.238v1.027H5.08l-.664.664.726.726 1.39-1.39h1.093c.036.063.074.124.118.182a3.056 3.056 0 0 1-2.824 1.872 3.062 3.062 0 0 1-2.361-1.105zm2.735 3.949c0-.68.186-1.338.523-1.925a4.051 4.051 0 0 0 2.448-1.636c.026.301.115.595.271.859l-2.578 2.578.726.726 2.578-2.578c.323.191.69.283 1.06.278a3.867 3.867 0 0 1-3.762 2.964H5.291v-1.266zm1.778 2.266a4.861 4.861 0 0 0 2.951-1.407c.58-.58.995-1.291 1.226-2.065a2.036 2.036 0 0 0 1.766.348 12.409 12.409 0 0 1 2.386 2.018 13.383 13.383 0 0 0-2.785 6.414 4.827 4.827 0 0 0-1.001-.136 10.268 10.268 0 0 1-4.544-5.172zm4.562 11.043a1.667 1.667 0 0 1 0-1.486l.399-.798-.399-.798a1.667 1.667 0 0 1 0-1.486l.136-.271a3.744 3.744 0 0 1 2.626 1.399l.339.424c-.12.219-.194.466-.194.733s.075.514.194.733l-.338.423a3.74 3.74 0 0 1-2.626 1.399l-.136-.272zm4.96-2.284a.514.514 0 1 1-1.028 0 .514.514 0 0 1 1.028 0zm1.416 3.649a2.758 2.758 0 0 0-1.416.76.744.744 0 0 1-1.027 0 2.758 2.758 0 0 0-1.416-.76c.136-.471.33-.921.574-1.349.167-.156.327-.321.473-.503l.299-.374a1.514 1.514 0 0 0 1.168 0l.299.374c.145.181.306.346.472.502.244.427.438.878.574 1.349zm2.518-2.852a1.667 1.667 0 0 1 0 1.486l-.136.271a3.744 3.744 0 0 1-2.626-1.399l-.339-.424c.12-.219.194-.466.194-.733s-.075-.514-.194-.733l.338-.423a3.74 3.74 0 0 1 2.626-1.399l.136.271a1.667 1.667 0 0 1 0 1.486l-.399.798.399.798zm.021-4.384a4.764 4.764 0 0 0-3.585 1.788l-.299.374a1.518 1.518 0 0 0-1.168 0l-.3-.374a4.775 4.775 0 0 0-1.592-1.287 12.373 12.373 0 0 1 4.369-7.945 2.569 2.569 0 0 0 2.215 1.271 2.573 2.573 0 0 0 2.525-2.098 2.57 2.57 0 0 0 1.526-.917c.294.064.6.068.894.001.174.278.411.505.687.67a10.342 10.342 0 0 1-5.272 8.516zm9.702-12.389-.59.183.288.546c.211.402.14.885-.176 1.202s-.799.388-1.202.176l-.546-.288-.183.59a1.018 1.018 0 0 1-1.948 0l-.183-.59-.547.288c-.137.072-.288.11-.439.117.052-.203.088-.412.088-.631 0-.961-.532-1.797-1.315-2.237a2.033 2.033 0 0 0 .358-1.682 2.035 2.035 0 0 0 .957-1.731c0-.037-.005-.072-.007-.109.124.015.245.05.358.109l.546.288.183-.59a1.018 1.018 0 0 1 1.948 0l.183.59.546-.288c.402-.211.885-.141 1.202.176s.387.8.176 1.202l-.288.546.59.183c.433.135.725.526.725.974s-.291.841-.724.975z"/><path fill="#ae8646" style="fill:var(--color2,#ae8646)" d="M20.186 13.509c.85 0 1.541-.691 1.541-1.541s-.691-1.541-1.541-1.541-1.541.691-1.541 1.541.691 1.541 1.541 1.541zm0-2.054a.514.514 0 1 1 0 1.028.514.514 0 0 1 0-1.028z"/></symbol><symbol id="icon-bouquet-5" viewBox="0 0 32 32"><path fill="#ae8646" style="fill:var(--color2,#ae8646)" d="M31.209 16.554c-.016-.141-.423-3.488-2.665-4.727a3.797 3.797 0 0 0-.624-.271c.179-.276.326-.572.437-.883.813-2.363-.574-5.006-3.107-6.049a5.166 5.166 0 0 0-.315-.126h-.006a5.52 5.52 0 0 0-3.923.088 4.89 4.89 0 0 0-.97.544c-1.027-3.641-5.042-3.558-5.092-3.556-1.414.03-2.779.549-3.719 1.384a3.804 3.804 0 0 0-.29-.472C9.394.44 6.023.507 5.881.51a.525.525 0 0 0-.487.367c-.039.124-.853 2.818.175 4.842a5.465 5.465 0 0 0-2.682 2.454 4.46 4.46 0 0 0-.325 3.421c.194.597.516 1.144.944 1.603-.177.082-.342.188-.509.288-1.53.921-1.982 3.034-2.135 4.114h.004a8.473 8.473 0 0 0-.081.839h.006a.518.518 0 0 0 .339.504 8.826 8.826 0 0 0 2.733.467 4.727 4.727 0 0 0 2.686-.73c.168-.116.326-.246.473-.389.381.77.969 1.418 1.699 1.871.152.091.309.174.469.25.324.424.626.866.904 1.322-1.347-.669-2.732-.562-3.305.325a1.905 1.905 0 0 0 .053 1.922 2.006 2.006 0 0 0-1.336 1.724c0 1.177 1.383 2.098 3.148 2.098a3.926 3.926 0 0 0 2.413-.739 3.388 3.388 0 0 1-1.6 2.369.525.525 0 0 0-.136.838 6.165 6.165 0 0 0 2.565 1.276l.033.009c1.156.308 2.349.457 3.545.444a13.197 13.197 0 0 0 3.543-.442l.033-.009a6.163 6.163 0 0 0 2.566-1.276.523.523 0 0 0-.136-.839c-1.198-.599-1.611-2.066-1.746-3.2l.065-.016a.526.526 0 0 0 .382-.636.518.518 0 0 0-.509-.387v-.013c0-1.188.588-2.644 1.691-4.221.053 0 .108.007.163.007a4.774 4.774 0 0 0 4.628-3.071c.03-.086.052-.175.075-.262.457.136.932.204 1.41.202a8.558 8.558 0 0 0 3.275-.749.526.526 0 0 0 .296-.534zM22.096 6.295a1.622 1.622 0 0 1 1.626-.954c.295.001.587.051.866.147h.003l.016.006c1.083.381 1.738 1.351 1.456 2.167a1.237 1.237 0 0 1-.293.454 1.573 1.573 0 0 0-.323-.802 2.543 2.543 0 0 0-1.198-.831 2.117 2.117 0 0 0-2.203.344 1.2 1.2 0 0 1 .048-.532zm2.633 2.019a.432.432 0 0 1-.314.214 1.383 1.383 0 0 1-.604.004c-.079-.02-.158-.036-.238-.063h-.006l-.006-.003c-.082-.029-.158-.066-.235-.101-.438-.224-.641-.561-.581-.734.047-.135.28-.252.611-.252.188.003.374.035.552.098.276.088.521.253.706.475a.43.43 0 0 1 .115.363zm-5.301-.717a3.41 3.41 0 0 1 1.837-1.975 2.152 2.152 0 0 0-.161.331c-.472 1.367.481 2.938 2.121 3.505.148.051.299.09.453.116.244.055.494.084.745.088a2.674 2.674 0 0 0 2.632-1.658 2.16 2.16 0 0 0 .085-.344c.436.822.517 1.787.225 2.671a3.593 3.593 0 0 1-2.959 2.301 5.741 5.741 0 0 0-1.37-.787 3.833 3.833 0 0 0-.304-.119 5.692 5.692 0 0 0-2.208-.304 3.654 3.654 0 0 1-1.096-3.826zm1.164 6.027a1.59 1.59 0 0 0-.748.432 1.22 1.22 0 0 1 .049-.537c.154-.399.483-.706.892-.829.238-.083.489-.125.741-.124.295.001.587.052.866.149.384.129.733.346 1.019.634.036.075.09.14.157.189.322.369.434.877.298 1.348a1.208 1.208 0 0 1-.296.453 1.589 1.589 0 0 0-.322-.802 2.69 2.69 0 0 0-2.655-.914zm1.936 1.916c-.059.174-.427.314-.911.22-.082-.023-.165-.039-.247-.068v.002h-.004l-.006-.003c-.082-.028-.157-.066-.234-.101-.438-.224-.641-.561-.581-.734a.431.431 0 0 1 .315-.214c.097-.025.197-.037.298-.036.188.002.374.034.551.097.276.088.521.252.706.474a.431.431 0 0 1 .116.363zm-12.459-1.261a1.573 1.573 0 0 0-.453.738 1.223 1.223 0 0 1-.21-.498c-.056-.424.088-.85.388-1.154v.002c.377-.401.88-.662 1.425-.741.149-.024.3-.037.451-.037a2.33 2.33 0 0 1 1.138.281c.382.192.654.549.738.967.027.181.014.365-.041.539a1.576 1.576 0 0 0-.666-.554 2.688 2.688 0 0 0-2.77.456zm1.919 1.388c-.085.022-.169.048-.257.063v.002c-.087.014-.172.016-.258.023a1.37 1.37 0 0 1-.589-.105c-.158-.07-.259-.169-.274-.262a.43.43 0 0 1 .174-.339c.22-.188.489-.309.776-.349a1.8 1.8 0 0 1 .293-.024c.19-.004.378.032.553.105.158.071.258.169.274.262.029.18-.225.477-.693.625zm.388-4.137c.137-.318.24-.651.305-.991.717.307 1.49.465 2.27.462a5.547 5.547 0 0 0 3.424-1.146c.183.649.497 1.255.923 1.778a5.369 5.369 0 0 0-.494.176 4.515 4.515 0 0 0-2.336 2.131v.002a4.656 4.656 0 0 0-1.559-1.607 5.383 5.383 0 0 0-2.532-.805zm2.575-8.923c1.158 0 2.099.706 2.099 1.574a1.23 1.23 0 0 1-.127.519 2.117 2.117 0 0 0-1.972-1.044A2.116 2.116 0 0 0 12.979 4.7a1.217 1.217 0 0 1-.126-.519c0-.868.941-1.574 2.098-1.574zM16 5.231c0 .183-.301.435-.787.505-.087.008-.172.019-.262.019s-.174-.011-.262-.019c-.486-.07-.787-.323-.787-.505 0-.214.408-.524 1.049-.524S16 5.018 16 5.231zm-4.165-1.402c-.02.116-.031.234-.032.352 0 1.446 1.412 2.623 3.147 2.623s3.148-1.177 3.148-2.623a2.088 2.088 0 0 0-.035-.37 3.442 3.442 0 0 1 1.063 2.179 4.265 4.265 0 0 0-.923 2.598 4.463 4.463 0 0 1-3.252 1.364 4.572 4.572 0 0 1-2.201-.557 4.213 4.213 0 0 0-.19-.982 4.371 4.371 0 0 0-1.794-2.335 3.439 3.439 0 0 1 1.069-2.249zm-5.534-2.26c.848.046 2.851.291 3.797 1.548.158.219.285.459.376.713a4.54 4.54 0 0 0-.549 1.102 4.874 4.874 0 0 0-1.48-1.679.524.524 0 1 0-.629.839c.467.329.856.755 1.142 1.249a5.606 5.606 0 0 0-2.367.041c-.734-1.258-.464-3.041-.291-3.813zm.088 4.96v.002c.02-.007.039-.016.061-.022l.056-.015c.246-.075.502-.114.759-.116a1.644 1.644 0 0 1 1.661.992c.052.175.066.359.037.539a1.592 1.592 0 0 0-.738-.452 2.555 2.555 0 0 0-1.457.049 2.117 2.117 0 0 0-1.563 1.593 1.214 1.214 0 0 1-.277-.457c-.258-.813.397-1.747 1.462-2.113zM7.65 9.404c-.082.034-.161.072-.247.099v.002c-.086.027-.171.042-.257.06-.484.082-.847-.068-.902-.241-.065-.204.23-.624.839-.819a1.72 1.72 0 0 1 .523-.086c.349 0 .594.126.638.267.056.174-.154.504-.595.718zm-1.008 7.697c0 .013.006.025.008.038-.189.262-.42.49-.685.674-1.304.889-3.282.483-4.098.258a7.34 7.34 0 0 1 .058-.449c.002-.021.004-.04.004-.06h.004c.153-.936.64-2.605 1.661-3.214.256-.168.538-.294.833-.372.449.286.94.498 1.456.629a11.916 11.916 0 0 0-2.317 1.811.526.526 0 1 0 .742.742 10.75 10.75 0 0 1 2.413-1.821 4.296 4.296 0 0 0-.079 1.763zm.855-3.39a4.163 4.163 0 0 1-2.686-.738 3.332 3.332 0 0 1-1.248-1.695 3.415 3.415 0 0 1 .257-2.623c.008-.017.019-.031.027-.048.016.119.042.236.078.351A2.693 2.693 0 0 0 6.6 10.679c.232-.002.463-.027.689-.074.293-.046.577-.136.842-.269a3.415 3.415 0 0 0 1.446-1.189 2.413 2.413 0 0 0 .346-2.099 2.214 2.214 0 0 0-.154-.336 3.405 3.405 0 0 1 1.789 2.018 3.465 3.465 0 0 1-.387 2.842c-.042.006-.084.008-.126.015a5.522 5.522 0 0 0-3.417 1.941c-.048.06-.089.123-.134.184zm1.788 5.563a3.43 3.43 0 0 1-1.61-2.344 3.34 3.34 0 0 1 .412-2.204c.105-.035.169-.053.172-.053a.502.502 0 0 0 .105-.049c.003.022.003.043.007.065A2.417 2.417 0 0 0 9.63 16.4a3.385 3.385 0 0 0 1.653.416c.207-.001.414-.018.619-.052.139-.024.276-.058.411-.102a3.403 3.403 0 0 0 1.626-.973 2.411 2.411 0 0 0 .644-2.025 2.241 2.241 0 0 0-.088-.343 3.399 3.399 0 0 1 1.464 2.243c.329 1.998-1.259 3.929-3.544 4.305a4.472 4.472 0 0 1-3.131-.595zm-.629 7.48c-1.201 0-2.098-.554-2.098-1.049s.897-1.049 2.098-1.049 2.099.554 2.099 1.049c0 .495-.898 1.049-2.099 1.049zm0-3.147c-.262 0-.523.022-.781.065a1.06 1.06 0 0 1-.2-1.049h.001c.269-.416 1.324-.392 2.333.259a3.13 3.13 0 0 1 1.113 1.18c.035.136.068.272.091.408a3.785 3.785 0 0 0-2.557-.863zm11.662 6.305c-.44.241-.904.433-1.386.574a3.305 3.305 0 0 1-1.894-2.263.524.524 0 1 0-1.028.207 4.016 4.016 0 0 0 1.474 2.374 13.942 13.942 0 0 1-4.018 0 4.012 4.012 0 0 0 1.474-2.371.524.524 0 1 0-1.028-.206 3.304 3.304 0 0 1-1.894 2.261 6.928 6.928 0 0 1-1.385-.574c1.055-.9 1.462-2.329 1.613-3.471 1.066.196 2.146.3 3.23.312a18.922 18.922 0 0 0 3.23-.315c.15 1.144.557 2.573 1.612 3.473zm-1.695-4.732v.209a18.169 18.169 0 0 1-3.148.315 18.179 18.179 0 0 1-3.148-.315v-.209c0-1.479-.696-2.997-1.494-4.254.263.038.528.057.794.057a5.725 5.725 0 0 0 1.547-.211c.479.867.73 1.842.728 2.834a.524.524 0 1 0 1.048 0 6.865 6.865 0 0 0-.787-3.205 5.229 5.229 0 0 0 2.406-2.331c.016.03.028.061.045.091.238.421.533.807.876 1.148a6.896 6.896 0 0 0-1.491 4.297.525.525 0 0 0 1.049 0 5.91 5.91 0 0 1 1.252-3.63 5.831 5.831 0 0 0 1.896.831c-1.045 1.6-1.574 3.069-1.574 4.372zm6.539-7.626c-.659 1.914-2.974 2.859-5.164 2.104a4.474 4.474 0 0 1-2.469-2.011 3.34 3.34 0 0 1 1.534-4.801 2.298 2.298 0 0 0-.161.331c-.472 1.368.481 2.938 2.122 3.506.149.051.302.091.459.117.242.054.49.083.739.087 1.142.067 2.2-.6 2.633-1.659.038-.112.066-.227.085-.344.436.822.517 1.788.223 2.671zm1.225-.969a4.612 4.612 0 0 0-.592-2.336 4.38 4.38 0 0 1 1.377.81.524.524 0 0 0 .742-.742 5.633 5.633 0 0 0-1.873-1.101 4.7 4.7 0 0 0 1.133-.764c.301.053.592.151.863.293 1.379.762 1.901 2.711 2.066 3.544-.722.273-2.386.783-3.715.296z"/></symbol><symbol id="icon-car" viewBox="0 0 32 32"><path fill="#ebebeb" style="fill:var(--color3,#ebebeb)" d="m29.518 14.487-.814-3.257a.492.492 0 0 0 .39-.481v-.525c0-1.14-.927-2.067-2.067-2.067h-3.708V7.074c0-.561-.456-1.017-1.017-1.017H3.399c-.561 0-1.017.456-1.017 1.017V16a.492.492 0 1 0 .984 0V7.074c0-.018.015-.033.033-.033h18.903c.018 0 .033.015.033.033V16a.492.492 0 1 0 .984 0v-.558H29.128c.715.001 1.321.47 1.53 1.116h-1.531a.492.492 0 0 0-.492.492v1.05c0 .851.692 1.542 1.542 1.542h.558v2.166h-1.287c-.423-1.221-1.583-2.1-2.946-2.1s-2.523.879-2.946 2.1h-.237V18.1a.492.492 0 1 0-.984 0v3.708H12.122c-.423-1.221-1.583-2.1-2.946-2.1s-2.524.879-2.946 2.1H3.4a.033.033 0 0 1-.033-.033v-1.083H5.5a.492.492 0 1 0 0-.984H.774a.492.492 0 1 0 0 .984h1.608v1.083c0 .561.456 1.017 1.017 1.017h2.659l-.001.033c0 1.719 1.399 3.118 3.118 3.118s3.118-1.398 3.118-3.118l-.001-.033h11.094l-.001.033c0 1.719 1.399 3.118 3.118 3.118s3.118-1.398 3.118-3.118l-.001-.033h1.609c.272 0 .492-.22.492-.492v-5.251a2.597 2.597 0 0 0-2.201-2.563zm-6.2-5.346h3.708c.597 0 1.083.486 1.083 1.083v.033h-4.791V9.141zm0 5.317v-3.216h4.374l.804 3.216h-5.178zM9.174 24.959c-1.176 0-2.133-.957-2.133-2.133s.957-2.133 2.133-2.133c1.176 0 2.133.957 2.133 2.133s-.957 2.133-2.133 2.133zm17.327 0c-1.176 0-2.133-.957-2.133-2.133s.957-2.133 2.133-2.133c1.176 0 2.133.957 2.133 2.133s-.957 2.133-2.133 2.133zm4.234-6.301h-.558a.558.558 0 0 1-.558-.558v-.558h1.116v1.116z"/><path fill="#ebebeb" style="fill:var(--color3,#ebebeb)" d="M9.174 21.809a1.018 1.018 0 1 0 .002 2.036 1.018 1.018 0 0 0-.002-2.036zM26.501 21.809a1.018 1.018 0 1 0 .002 2.036 1.018 1.018 0 0 0-.002-2.036zM20.726 19.708h-7.351a.492.492 0 1 0 0 .984h7.351a.492.492 0 1 0 0-.984zM8.124 17.608H1.823a.492.492 0 1 0 0 .984h6.301a.492.492 0 1 0 0-.984zM17.398 10.926a.493.493 0 0 0-.696 0l-4.378 4.378-2.277-2.277a.493.493 0 0 0-.696.696l2.625 2.625a.49.49 0 0 0 .696 0l4.726-4.726a.493.493 0 0 0 0-.696z"/></symbol><symbol id="icon-diamond" viewBox="0 0 32 32"><path fill="#ebebeb" style="fill:var(--color3,#ebebeb)" d="M30.633 11.705 26.558 7.63a4.454 4.454 0 0 0-3.171-1.313H8.613A4.454 4.454 0 0 0 5.442 7.63l-4.075 4.075a2.465 2.465 0 0 0-.168 3.311L14.083 30.81c.472.578 1.17.91 1.916.91s1.444-.331 1.916-.91l12.884-15.794a2.465 2.465 0 0 0-.168-3.311zm-6.277-4.333-1.855 5.256-5.389-5.389h6.275c.332 0 .657.046.969.134zm-2.929 5.484H10.573L16 7.429l5.427 5.427zm-6.539-5.618-5.389 5.389-1.855-5.256c.311-.087.636-.134.969-.134h6.275zM6.093 8.282c.214-.214.45-.396.702-.547l1.807 5.121h-6.92c.076-.182.187-.352.335-.499l4.075-4.075zm9.819 22.514L10.439 15.29a.46.46 0 1 0-.869.307l5.116 14.494L1.913 14.434a1.553 1.553 0 0 1-.316-.657h20.498l-6.007 17.019a1.293 1.293 0 0 1-.176 0zm1.402-.705 7.89-22.356c.253.151.489.333.702.547l4.075 4.075c.148.148.259.318.335.499h-5.262a.461.461 0 0 0 0 .922h5.349c-.05.234-.155.46-.316.657L17.314 30.092zM16 4.723a.461.461 0 0 0 .461-.461V.741a.461.461 0 0 0-.922 0v3.521c0 .254.206.461.461.461zM11.061 4.468a.461.461 0 0 0 .824-.412l-1.006-2.012a.46.46 0 1 0-.824.412l1.006 2.012zM20.321 4.674a.459.459 0 0 0 .618-.206l1.006-2.012a.46.46 0 1 0-.824-.412l-1.006 2.012a.46.46 0 0 0 .206.618z"/></symbol><symbol id="icon-map" viewBox="0 0 32 32"><path fill="#ebebeb" style="fill:var(--color3,#ebebeb)" d="M15.969 8.447c-1.811 0-3.285 1.474-3.285 3.285s1.474 3.285 3.285 3.285c1.811 0 3.285-1.474 3.285-3.285s-1.474-3.285-3.285-3.285zm0 5.649c-1.304 0-2.364-1.061-2.364-2.364s1.061-2.364 2.364-2.364c1.304 0 2.364 1.061 2.364 2.364s-1.061 2.364-2.364 2.364z"/><path fill="#ebebeb" style="fill:var(--color3,#ebebeb)" d="m31.692 26.128-1.236-3.724-.001-.003-1.263-3.805-.001-.002-1.479-4.458a.46.46 0 0 0-.437-.315h-5.01c.268-.636.428-1.259.428-1.842 0-3.708-3.016-6.724-6.724-6.724s-6.724 3.016-6.724 6.724c0 .584.16 1.207.428 1.842h-2.27v-.551a1.875 1.875 0 0 0 1.41-1.9 1.882 1.882 0 0 0-1.746-1.784 1.874 1.874 0 0 0-1.997 1.869c0 .874.602 1.61 1.412 1.815v.551H4.724a.46.46 0 0 0-.437.315l-1.479 4.458-.001.002-1.263 3.805-.001.003-1.236 3.724a.462.462 0 0 0 .433.619H16.209a.461.461 0 0 0 0-.922h-4.536L12.634 23h6.792l.961 2.825H18.89a.461.461 0 0 0 0 .922h12.369a.461.461 0 0 0 .433-.619zm-4.749-11.387 1.172 3.531H26.81l-1.201-3.531h1.334zm-4.974 0 1.201 3.531h-4.055c.975-1.046 1.994-2.288 2.695-3.531h.16zm-6-8.566a5.81 5.81 0 0 1 5.803 5.803c0 1.297-1.039 3.133-3.006 5.31a34.71 34.71 0 0 1-2.799 2.743c-1.861-1.608-5.801-5.536-5.801-8.053a5.81 5.81 0 0 1 5.803-5.803zm-9.978 5.279a.953.953 0 0 1 1.904 0 .953.953 0 0 1-1.904 0zm.689 14.371H1.379L2.316 23h3.319v.772a.461.461 0 0 0 .922 0V23h1.085l-.961 2.825zm-1.321-4.917c0-.406.331-.737.737-.737s.737.331.737.737a.738.738 0 0 1-1.474 0zm17.983 1.78 1.067 3.137h-3.048l-1.168-3.433a.46.46 0 0 0-.436-.312h-7.451a.462.462 0 0 0-.436.312l-1.168 3.433H7.654l1.067-3.137a.461.461 0 0 0-.449-.609H7.269c.329-.33.521-.797.48-1.307a1.666 1.666 0 0 0-1.544-1.519 1.66 1.66 0 0 0-1.767 1.654c0 .457.186.871.485 1.171H2.622l.958-2.886h4.611a.461.461 0 0 0 0-.922H3.886l1.172-3.531h1.425v.071c0 .252.194.472.446.48a.46.46 0 0 0 .475-.46v-.09h2.726c.7 1.243 1.72 2.485 2.695 3.531h-1.952a.461.461 0 0 0 0 .922h2.846c1.035 1.026 1.865 1.72 1.957 1.797a.458.458 0 0 0 .588 0c.093-.077.923-.771 1.957-1.797h5.58a.461.461 0 0 0 .449-.609l-1.307-3.843h1.694l1.408 4.14a.46.46 0 0 0 .436.312h1.941l.958 2.886h-3.486a1.66 1.66 0 0 0-.953-3.13 1.658 1.658 0 0 0-.519 3.13h-.629a.461.461 0 0 0-.449.609zm1.716-1.364a.74.74 0 0 1-.635-.634.738.738 0 0 1 1.462-.193.738.738 0 0 1-.827.827zm.323 4.501L24.42 23h.273v.441c0 .219.146.42.36.465a.461.461 0 0 0 .561-.45v-.457h4.069l.937 2.825h-5.24z"/></symbol><symbol id="icon-medal" viewBox="0 0 32 32"><path fill="#ebebeb" style="fill:var(--color1,#ebebeb)" d="m28.512 28.832-3.614-9.503c.357-.213.668-.497.913-.833a3.041 3.041 0 0 0 .488-2.543 2.067 2.067 0 0 1 .696-2.094 3.045 3.045 0 0 0 .82-3.669 3.058 3.058 0 0 0-.827-1.054 2.068 2.068 0 0 1-.689-2.095 3.03 3.03 0 0 0-.49-2.537 3.128 3.128 0 0 0-2.324-1.279 2.123 2.123 0 0 1-1.818-1.298 3.097 3.097 0 0 0-1.913-1.77 3.148 3.148 0 0 0-2.629.313 2.163 2.163 0 0 1-2.254 0 3.147 3.147 0 0 0-3.781.361c-.331.306-.59.68-.761 1.096a2.134 2.134 0 0 1-1.823 1.299 3.12 3.12 0 0 0-2.319 1.279 3.041 3.041 0 0 0-.488 2.543 2.067 2.067 0 0 1-.696 2.094 3.045 3.045 0 0 0-.82 3.669c.194.408.477.768.827 1.054a2.068 2.068 0 0 1 .689 2.095 3.03 3.03 0 0 0 .49 2.537c.245.336.556.619.913.832l-3.614 9.503a.496.496 0 0 0 .111.528.5.5 0 0 0 .526.12l3.937-1.415 2.001 3.674a.496.496 0 0 0 .439.261l.034-.001a.498.498 0 0 0 .434-.321l3.384-8.892c.182-.069.357-.154.523-.255a2.162 2.162 0 0 1 2.252 0c.166.1.34.184.521.251l3.385 8.895a.502.502 0 0 0 .434.321l.034.001a.497.497 0 0 0 .439-.261l2-3.674 3.937 1.415a.507.507 0 0 0 .526-.12.502.502 0 0 0 .111-.528zM10.42 30.306l-1.686-3.095a.498.498 0 0 0-.608-.231l-3.317 1.192 3.222-8.471c.159.037.32.062.483.075a2.123 2.123 0 0 1 1.818 1.298 3.097 3.097 0 0 0 1.913 1.77c.309.1.632.151.956.153l-2.781 7.309zm3.928-8.626a2.14 2.14 0 0 1-2.574-.243c-.224-.207-.4-.46-.516-.742a3.136 3.136 0 0 0-2.681-1.918 2.121 2.121 0 0 1-1.578-.868 2.051 2.051 0 0 1-.328-1.71 3.077 3.077 0 0 0-1.029-3.111 2.051 2.051 0 0 1 .006-3.181A3.074 3.074 0 0 0 6.67 6.795a2.052 2.052 0 0 1 .329-1.705 2.124 2.124 0 0 1 1.583-.868 3.132 3.132 0 0 0 2.675-1.918 2.095 2.095 0 0 1 1.297-1.197 2.144 2.144 0 0 1 1.794.214 3.17 3.17 0 0 0 3.304 0 2.155 2.155 0 0 1 2.574.243c.224.207.4.46.516.742a3.136 3.136 0 0 0 2.681 1.918 2.121 2.121 0 0 1 1.578.868 2.051 2.051 0 0 1 .328 1.71 3.077 3.077 0 0 0 1.029 3.111 2.051 2.051 0 0 1-.006 3.181 3.074 3.074 0 0 0-1.022 3.112 2.052 2.052 0 0 1-.329 1.705 2.124 2.124 0 0 1-1.584.868 3.132 3.132 0 0 0-2.676 1.918 2.095 2.095 0 0 1-1.297 1.197 2.146 2.146 0 0 1-1.794-.213 3.176 3.176 0 0 0-3.304.001zm9.526 5.299a.494.494 0 0 0-.608.231l-1.686 3.095-2.781-7.308c.325-.002.647-.054.956-.154a3.09 3.09 0 0 0 1.913-1.77c.153-.364.404-.679.726-.909s.701-.365 1.096-.39c.161-.012.321-.037.478-.074l3.222 8.471-3.317-1.192z"/><path fill="#ebebeb" style="fill:var(--color1,#ebebeb)" d="M23.5 11.5a7.504 7.504 0 0 0-4.63-6.929 7.497 7.497 0 0 0-10.226 5.466A7.506 7.506 0 0 0 16 19a7.509 7.509 0 0 0 7.5-7.5zM16 18a6.5 6.5 0 1 1-.001-13.002A6.5 6.5 0 0 1 16 18.001z"/><path fill="#ebebeb" style="fill:var(--color1,#ebebeb)" d="m19.977 9.842-2.438-.354-1.09-2.209a.518.518 0 0 0-.896 0l-1.09 2.209-2.438.354a.503.503 0 0 0-.404.34.5.5 0 0 0 .126.512l1.765 1.72-.416 2.428a.5.5 0 0 0 .726.527l2.181-1.146 2.181 1.146a.503.503 0 0 0 .696-.254.509.509 0 0 0 .03-.273l-.416-2.428 1.765-1.72a.491.491 0 0 0 .127-.512.502.502 0 0 0-.404-.34zm-2.373 2.04a.504.504 0 0 0-.143.443l.29 1.688-1.517-.797a.495.495 0 0 0-.464 0l-1.516.797.29-1.688a.497.497 0 0 0-.143-.443l-1.227-1.196 1.695-.246c.08-.012.156-.043.222-.09s.119-.111.154-.183l.758-1.536.758 1.536a.497.497 0 0 0 .376.273l1.695.246-1.227 1.196z"/></symbol><symbol id="icon-instagram" viewBox="0 0 32 32"><path fill="#ebebeb" style="fill:var(--color3,#ebebeb)" d="M20.169 7.939h-8.418a3.825 3.825 0 0 0-3.82 3.82v8.495a3.825 3.825 0 0 0 3.82 3.82h8.418a3.825 3.825 0 0 0 3.82-3.82v-8.495a3.825 3.825 0 0 0-3.82-3.82zm-4.193 13.155c-2.855 0-5.178-2.298-5.178-5.123s2.323-5.123 5.178-5.123 5.178 2.298 5.178 5.123-2.323 5.123-5.178 5.123zm5.271-9.238a1.218 1.218 0 1 1 0-2.435 1.218 1.218 0 0 1 0 2.435z"/><path fill="#ebebeb" style="fill:var(--color3,#ebebeb)" d="M16 0C7.164 0 0 7.164 0 16s7.164 16 16 16c8.837 0 16-7.163 16-16S24.837 0 16 0zm9.879 20.255a5.716 5.716 0 0 1-5.71 5.71h-8.418a5.716 5.716 0 0 1-5.71-5.71V11.76a5.716 5.716 0 0 1 5.71-5.71h8.418a5.716 5.716 0 0 1 5.71 5.71v8.495z"/><path fill="#ebebeb" style="fill:var(--color3,#ebebeb)" d="M15.976 12.733c-1.815 0-3.292 1.452-3.292 3.237s1.477 3.237 3.292 3.237 3.292-1.452 3.292-3.237c0-1.785-1.477-3.237-3.292-3.237z"/></symbol><symbol id="icon-telegram" viewBox="0 0 32 32"><path fill="#ebebeb" style="fill:var(--color3,#ebebeb)" d="M16 0C7.164 0 0 7.164 0 16s7.164 16 16 16c8.837 0 16-7.163 16-16S24.837 0 16 0zm9 7.436L21.418 24.26a.483.483 0 0 1-.729.313l-5.509-3.654-2.898 2.697a.483.483 0 0 1-.77-.207l-1.887-5.951-5.066-2.078c-.389-.177-.383-.796.015-.951l19.778-7.54a.483.483 0 0 1 .648.546z"/><path fill="#ebebeb" style="fill:var(--color3,#ebebeb)" d="m12.121 21.645.322-3.059 8.935-8.734-10.787 7.084 1.53 4.709z"/></symbol><symbol id="icon-whatsapp" viewBox="0 0 32 32"><path fill="#ebebeb" style="fill:var(--color3,#ebebeb)" d="M16.651 6.775c-4.458 0-8.084 3.625-8.085 8.081a8.06 8.06 0 0 0 1.236 4.301l.192.306-.816 2.983 3.059-.802.295.175a8.078 8.078 0 0 0 4.114 1.127h.003c4.455 0 8.08-3.626 8.082-8.082.001-2.16-.839-4.19-2.365-5.718s-3.555-2.37-5.714-2.37zm4.754 11.556c-.203.567-1.173 1.086-1.64 1.155-.419.063-.948.089-1.53-.096a14.086 14.086 0 0 1-1.385-.512c-2.438-1.052-4.03-3.506-4.151-3.668s-.992-1.317-.992-2.513.627-1.784.85-2.027.486-.304.648-.304.324.002.466.008c.149.007.35-.056.547.417.202.487.688 1.682.749 1.804s.101.264.02.426c-.081.162-.121.264-.243.405s-.255.317-.364.426c-.122.121-.248.253-.106.496s.629 1.039 1.352 1.683c.928.828 1.711 1.084 1.954 1.206s.385.101.526-.061c.142-.162.607-.71.769-.953s.324-.203.547-.122c.223.081 1.417.669 1.66.79s.405.182.466.284c.061.101.061.588-.142 1.155z"/><path fill="#ebebeb" style="fill:var(--color3,#ebebeb)" d="M16 0C7.164 0 0 7.164 0 16s7.164 16 16 16c8.837 0 16-7.163 16-16S24.837 0 16 0zm.648 24.588h-.004a9.721 9.721 0 0 1-4.647-1.184l-5.155 1.352 1.38-5.039a9.705 9.705 0 0 1-1.298-4.861c.002-5.362 4.364-9.723 9.724-9.723 2.601.001 5.043 1.014 6.879 2.852s2.847 4.281 2.845 6.879c-.002 5.361-4.365 9.724-9.724 9.724z"/></symbol><symbol id="icon-mail" viewBox="0 -6 32 32"><path fill="none" stroke="#9da4bd" style="stroke:var(--color1,#9da4bd)" stroke-linejoin="round" stroke-linecap="round" stroke-width="1.333" d="M6.4 6.667h19.2c1.32 0 2.4 1.05 2.4 2.333v14c0 1.283-1.08 2.333-2.4 2.333H6.4C5.08 25.333 4 24.283 4 23V9c0-1.283 1.08-2.333 2.4-2.333z"/><path fill="none" stroke="#9da4bd" style="stroke:var(--color1,#9da4bd)" stroke-linejoin="round" stroke-linecap="round" stroke-width="1.333" d="m26.667 9.333-10.667 8-10.667-8"/></symbol><symbol id="icon-phone" viewBox="0 0 32 32"><path fill="#ae8646" style="fill:var(--color2,#ae8646)" d="M23.91 19.936v2.4a1.607 1.607 0 0 1-.518 1.186 1.603 1.603 0 0 1-1.226.415 15.83 15.83 0 0 1-6.904-2.456 15.593 15.593 0 0 1-4.8-4.8 15.836 15.836 0 0 1-2.456-6.936 1.6 1.6 0 0 1 1.592-1.744h2.4a1.6 1.6 0 0 1 1.6 1.376c.101.768.289 1.522.56 2.248a1.596 1.596 0 0 1-.36 1.688l-1.016 1.016a12.8 12.8 0 0 0 4.8 4.8l1.016-1.016a1.604 1.604 0 0 1 1.688-.36c.726.271 1.48.459 2.248.56a1.604 1.604 0 0 1 1.376 1.624z"/></symbol><symbol id="icon-map-pin-fill" viewBox="0 0 32 32"><path fill="#ae8646" style="fill:var(--color2,#ae8646)" d="M15.806 26.211a.284.284 0 0 1-.251 0c-1.107-.528-9.154-4.617-9.154-11.838 0-5.11 4.155-9.253 9.28-9.253s9.28 4.143 9.28 9.253c0 7.221-8.047 11.31-9.154 11.838zm-.126-7.872c2.197 0 3.977-1.775 3.977-3.966s-1.781-3.966-3.977-3.966c-2.197 0-3.977 1.775-3.977 3.966s1.781 3.966 3.977 3.966z"/><path fill="#333" style="fill:var(--color4,#333)" d="M23.04 14.4a7.36 7.36 0 1 1-14.72 0 7.36 7.36 0 1 1 14.72 0z"/><path fill="#b7926a" style="fill:var(--color5,#b7926a)" d="M14.282 14.888c.197.185.433.391.631.576-1.06.643-1.376 2.043-1.825 3.396-.097.017-.211.004-.307.021.419-1.36.898-2.698 1.502-3.993z"/><path style="fill:var(--color6,#000)" d="M14.282 14.888c.197.185.433.391.631.576-1.06.643-1.376 2.043-1.825 3.396-.097.017-.211.004-.307.021.419-1.36.898-2.698 1.502-3.993z"/><path fill="#b7926a" style="fill:var(--color5,#b7926a)" d="M11.52 13.749c1.79 1.306 1.769 3.048 1.765 3.041-.275-.715-1.319-2.401-1.765-3.041z"/><path style="fill:var(--color6,#000)" d="M11.52 13.749c1.79 1.306 1.769 3.048 1.765 3.041-.275-.715-1.319-2.401-1.765-3.041z"/><path fill="#b7926a" style="fill:var(--color5,#b7926a)" d="M11.792 14.218c.408 1.637 1.496 2.593 1.493 2.589-.281-.541-1.258-2.087-1.493-2.589z"/><path style="fill:var(--color6,#000)" d="M11.792 14.218c.408 1.637 1.496 2.593 1.493 2.589-.281-.541-1.258-2.087-1.493-2.589z"/><path fill="#b7926a" style="fill:var(--color5,#b7926a)" d="M16.794 17.487c-2.107-.615-3.394.503-3.386.501.708-.23 2.627-.456 3.386-.501z"/><path style="fill:var(--color6,#000)" d="M16.794 17.487c-2.107-.615-3.394.503-3.386.501.708-.23 2.627-.456 3.386-.501z"/><path fill="#b7926a" style="fill:var(--color5,#b7926a)" d="M16.429 17.553c-1.48.707-3.013.453-3.009.452.599-.117 2.125-.396 3.009-.452z"/><path style="fill:var(--color6,#000)" d="M16.429 17.553c-1.48.707-3.013.453-3.009.452.599-.117 2.125-.396 3.009-.452z"/><path fill="#b7926a" style="fill:var(--color5,#b7926a)" d="M14.103 14.698c-.18-1.495-.46-2.216-1.254-3.471l.668-.033-.04-.648.654.04.018-.597.49.096.225-.485.613.976.301.49-.403-.081-.122.645-.537-.465.06 1.162c.093 1.196-.131 1.548-.672 2.37z"/><path style="fill:var(--color6,#000)" d="M14.103 14.698c-.18-1.495-.46-2.216-1.254-3.471l.668-.033-.04-.648.654.04.018-.597.49.096.225-.485.613.976.301.49-.403-.081-.122.645-.537-.465.06 1.162c.093 1.196-.131 1.548-.672 2.37z"/><path fill="#b7926a" style="fill:var(--color5,#b7926a)" d="m14.521 14.652.388.326c.361-1.024.593-1.321 1.642-1.581.046-.617.244-1.058.522-1.596l-.641-2.03-.156.937-.232-.147-.089.76-.284-.046-.134.651-.366-.085c-.027.927-.202 1.998-.65 2.812z"/><path style="fill:var(--color6,#000)" d="m14.521 14.652.388.326c.361-1.024.593-1.321 1.642-1.581.046-.617.244-1.058.522-1.596l-.641-2.03-.156.937-.232-.147-.089.76-.284-.046-.134.651-.366-.085c-.027.927-.202 1.998-.65 2.812z"/><path fill="#b7926a" style="fill:var(--color5,#b7926a)" d="M15.238 15.644c.088-2.16 1.503-1.848 3.128-1.604l-.17.417.61-.007-.247.279.537.21-1.664.379-1.837.264-.357.062z"/><path style="fill:var(--color6,#000)" d="M15.238 15.644c.088-2.16 1.503-1.848 3.128-1.604l-.17.417.61-.007-.247.279.537.21-1.664.379-1.837.264-.357.062z"/><path fill="#b7926a" style="fill:var(--color5,#b7926a)" d="M16.858 13.412c.019-.762.24-1.042.589-1.604l-.06-.341.195-.015.313.313-.01.406.212.273-.457.446-.237.539-.544-.017z"/><path style="fill:var(--color6,#000)" d="M16.858 13.412c.019-.762.24-1.042.589-1.604l-.06-.341.195-.015.313.313-.01.406.212.273-.457.446-.237.539-.544-.017z"/><path fill="#b7926a" style="fill:var(--color5,#b7926a)" d="m17.052 10.367 1.612-.434-.155.626.588.273-.262.624.39.318-.249.431.544.372-.374.498.253.531-.385.195.129.471-1.508-.712.104-.528.732-.496-.247-.434-.037-.465-.253-.496-.702.155-.18-.93z"/><path style="fill:var(--color6,#000)" d="m17.052 10.367 1.612-.434-.155.626.588.273-.262.624.39.318-.249.431.544.372-.374.498.253.531-.385.195.129.471-1.508-.712.104-.528.732-.496-.247-.434-.037-.465-.253-.496-.702.155-.18-.93z"/><path fill="#ae8646" style="fill:var(--color2,#ae8646)" d="M24.64 27.04c0 .265-4.012.48-8.96.48s-8.96-.215-8.96-.48 4.012-.48 8.96-.48 8.96.215 8.96.48z"/></symbol><symbol id="icon-burger" viewBox="0 0 46 32"><path fill="none" stroke="#d41443" style="stroke:var(--color1,#d41443)" stroke-width="2.286" d="M0 2.291h45.732M0 16.011h45.732M0 29.73h45.732"/></symbol><symbol id="icon-menu-color" viewBox="0 0 48 32"><path d="M0 5.333V0h48v5.333H0zm0 13.334h48v-5.333H0v5.333zM0 32h48v-5.333H0V32z"/></symbol><symbol id="icon-close" viewBox="0 0 32 32"><path d="M32 3.223 28.777 0 16 12.777 3.223 0 0 3.223 12.777 16 0 28.777 3.223 32 16 19.223 28.777 32 32 28.777 19.223 16 32 3.223z"/></symbol><symbol id="icon-review-star-empty" viewBox="0 0 32 32"><path fill="none" stroke="#ffc549" style="stroke:var(--color7,#ffc549)" stroke-linejoin="round" stroke-linecap="round" stroke-width="1.333" d="m16 2.667 4.12 8.338 9.213 1.345-6.667 6.486L24.239 28l-8.24-4.329L7.759 28l1.573-9.164-6.667-6.486 9.213-1.345 4.12-8.338z"/></symbol><symbol id="icon-review-star-fill" viewBox="0 0 32 32"><path fill="#ffc549" style="fill:var(--color7,#ffc549)" d="m16 2.667 4.12 8.338 9.213 1.345-6.667 6.486L24.239 28l-8.24-4.329L7.759 28l1.573-9.164-6.667-6.486 9.213-1.345 4.12-8.338z"/></symbol><symbol id="icon-slider-ellipse-empty" viewBox="0 0 32 32"><path fill="none" stroke="#00554e" style="stroke:var(--color9,#00554e)" stroke-width="2" d="M31 16c0 8.284-6.716 15-15 15S1 24.284 1 16C1 7.716 7.716 1 16 1s15 6.716 15 15z"/></symbol><symbol id="icon-slider-ellipse-fill" viewBox="0 0 32 32"><path fill="#00554e" style="fill:var(--color9,#00554e)" d="M32 16c0 8.837-7.163 16-16 16S0 24.837 0 16 7.163 0 16 0s16 7.163 16 16z"/></symbol></defs></svg>