<svg width="620" height="649" fill="none" xmlns="http://www.w3.org/2000/svg"><mask id="b" fill="#fff"><path d="M176.637 363.907c.166.145.197.41.064.586-.992 1.303-1.957 2.582-2.953 3.89-18.447 24.419-32.301 51.045-41.094 80.016-4.199 13.865-5.634 28.144-4.737 42.526.646 10.589 2.225 21.108 6.747 30.972.79 1.759 1.687 3.518 2.548 5.243 6.317 12.381 16.474 19.9 30.686 22.211 1.543.242 3.087.586 4.63.862 9.367 1.759 16.76 6.312 21.57 14.348 3.23 5.381 6.352 10.795 9.475 16.21 3.553 6.209 7.572 12.037 13.207 16.728 4.881 4.07 10.336 7.381 16.796 7.691 5.061.242 10.301-.517 15.254-1.621 5.132-1.138 10.121-3 15.037-4.897 5.635-2.208 11.378-3.656 17.515-3.725 1.974-.035 4.019-.38 5.886-1.035 13.028-4.656 24.548-11.244 32.372-22.798 7.645-11.312 13.028-23.556 17.12-36.421.389-1.259 2.218-1.117 2.447.181.276 1.567.542 3.008.855 4.441 1.722 7.794 4.881 15.072 9.905 21.349 5.814 7.208 8.973 15.244 10.408 24.108.575 3.656 1.651 7.243 2.548 10.864 3.051 12.141 9.583 22.626 17.443 32.283 9.152 11.244 21.893 17.141 36.177 19.97 11.664 2.276 23.077.931 34.239-2.898 14.176-4.863 26.271-12.864 37.182-22.625 4.917-4.415 9.654-9.071 14.212-13.83 4.989-5.208 10.48-9.795 16.761-13.52.861-.518 1.651-1.104 2.548-1.552 18.483-9.658 28.64-25.143 34.167-44.147 4.414-15.107 5.06-30.386 3.589-45.872-.245-2.698 2.906-3.449 4.081-1.008l.154.318c8.972 18.728 22.969 32.869 42.17 42.043 12.526 6.002 25.698 7.554 39.192 3.07 7.322-2.414 13.674-6.415 19.094-11.658 15.683-15.21 26.235-32.937 28.783-54.597 1.005-8.485 1.759-17.073 4.02-25.281 2.943-10.761 7.106-21.211 10.982-31.731 3.41-9.243 6.137-18.624 7.035-28.419.825-8.761-.467-17.314-2.979-25.73-5.635-18.831-14.284-36.249-26.128-52.252-13.279-17.866-30.973-30.42-51.251-40.008-16.689-7.898-34.167-13.451-52.471-16.59-1.213-.212-.889-1.727.295-2.064.544-.155 1.091-.3 1.643-.419 24.37-5.036 45.114-16.521 63.202-32.765.646-.552 1.292-1.104 1.831-1.759 7.501-9.485 17.837-15.866 27.24-23.316 3.769-3 7.573-5.932 11.198-9.036 12.597-10.83 21.857-23.832 25.41-39.87 2.907-13.003.753-25.385-7.071-36.766-9.618-13.969-22.646-23.074-39.586-27.213-9.296-2.276-18.483-5.001-27.563-7.933-12.49-4.07-22.073-11.52-27.672-23.28-.61-1.242-1.327-2.45-1.938-3.69-6.46-13.383-18.303-19.177-32.695-21.143-16.222-2.207-31.691 1.38-46.765 6.484-30.721 10.45-56.706 27.557-77.306 51.942-4.451 5.277-8.327 10.899-10.947 17.245-.379.85-1.674.67-2.054-.179a17.547 17.547 0 0 1-.638-1.58c-10.192-28.523-25.733-54.08-46.154-76.913-4.378-4.897-9.403-9.277-14.463-13.554-7.071-5.967-15.469-9.933-24.226-13.14-10.336-3.795-20.888-3.14-31.296-.415-17.407 4.519-34.777 9.313-52.148 14.003-8.003 2.173-16.15 4.139-24.477 4.174-7.25.034-14.571-.794-21.785-1.794-9.798-1.38-19.488-3.518-29.43-2.76-3.804.277-7.68 1.001-11.341 2.07-6.029 1.794-9.977 5.932-11.521 11.83a54.277 54.277 0 0 0-1.615 10.175c-.287 3.966.036 8.001-.107 12.002-.467 12.106-1.077 24.247-1.508 36.352-.466 13.624-1.902 27.282-.143 40.906 2.046 16.072 5.635 31.799 13.351 46.319 2.907 5.484 6.998 10.382 10.551 15.521.882 1.228-.07 2.874-1.55 2.566-2.498-.52-4.799-.998-7.099-1.462-17.299-3.38-34.347-1.621-50.892 3.414-32.66 10.002-62.484 24.971-86.566 49.01-20.134 20.108-34.275 43.733-43.499 70.084-2.225 6.311-2.978 12.864-2.404 19.555.718 8.623 5.024 12.865 14.248 13.279 5.742.241 11.485.31 17.227-.035 6.676-.413 10.982 2.035 14.248 7.726 11.198 19.59 28.712 30.558 51.646 33.8 20.35 2.897 39.407-.759 56.993-10.933 6.747-3.897 13.064-8.485 19.596-12.761.684-.47 1.398-.911 2.088-1.376.128-.086.289-.098.406.004Zm166.627 51.367c1.411.49 2.478 1.8 2.396 3.292-.825 8.898-1.902 17.796-2.44 26.729s-.718 17.9-.79 26.868c-.107 14.934-1.794 29.661-4.45 44.354-3.051 16.693-8.685 32.455-17.155 47.354-7.25 12.727-18.053 21.246-31.942 26.316-3.41 1.242-7.178 2.104-10.839 2.242-5.132.207-9.834 1.517-14.571 3.242-5.743 2.069-11.593 4.001-17.479 5.691-11.305 3.242-20.959.172-28.963-7.795a61 61 0 0 1-7.68-9.381c-2.871-4.277-5.132-8.899-7.824-13.313-2.405-3.932-4.845-7.795-7.537-11.554-3.338-4.691-7.896-8.002-13.531-9.761-2.978-.931-5.993-2-9.08-2.414-17.334-2.173-28.065-11.899-34.382-27.04-3.23-7.761-5.061-15.797-5.814-24.04-1.544-16.589-.287-33.041 4.809-49.044 8.326-26.144 20.601-50.528 36.895-72.912 5.742-7.898 12.202-15.348 18.878-22.522 5.922-6.311 12.489-12.106 18.986-17.866 10.551-9.346 21.103-18.693 31.977-27.66 7.968-6.553 16.725-12.106 26.415-16.142a40.1 40.1 0 0 1 1.924-.737c1.936-.692 3.944 1.139 3.388 3.117-4.917 17.555-6.388 35.249-1.902 53.08 3.409 13.555 10.013 25.212 23.041 32.558.778.449.957 1.503 1.01 2.399.375 6.329 3.347 11.479 9.47 14.501 12.693 6.263 23.461 15.671 37.19 20.438Zm132.417-80.369a.553.553 0 0 1 .466-.486.604.604 0 0 1 .589.224c.886 1.219 1.725 2.483 2.686 3.63 7.393 8.899 12.992 18.763 17.155 29.454a2536.373 2536.373 0 0 0 17.981 44.699c4.989 12.072 12.131 22.971 22.001 31.765 6.962 6.209 11.125 13.589 13.386 22.143 5.527 20.901 8.722 42.078 6.82 63.737-1.149 13.106-7.466 22.626-20.206 27.834-3.015 1.241-6.138 2.276-9.224 3.38-6.424 2.31-12.992 4.38-19.309 6.932-12.274 4.932-20.816 13.486-25.518 25.454-2.081 5.277-3.983 10.622-5.921 15.934-3.661 10.002-9.045 19.038-16.51 26.867-1.399 1.484-3.194 2.829-5.06 3.656-10.624 4.553-21.642 7.209-33.414 5.588-15.612-2.173-29.142-8.14-39.227-20.142-7.717-9.209-12.275-20.039-16.474-31.007-.682-1.793-.969-3.725-1.435-5.622-4.845-19.659-2.477-16.831-13.782-32.903-9.116-12.934-10.516-27.695-8.937-42.871 1.257-12.175 2.872-24.35 3.589-36.559.79-13.348.718-26.73 1.113-40.112.144-4.277.502-8.519 1.005-12.761.141-1.102.412-2.188.72-3.269.547-1.923 2.447-3.167 4.44-3.003 13.136 1.082 25.221-.786 35.759-7.316.903-.559 1.981-.784 3.018-.558 3.111.676 5.845 1.39 8.606 1.626 9.582.828 17.801-2.794 24.871-8.519 11.27-9.174 22.647-18.314 33.198-28.213 9.404-8.829 15.541-19.728 16.94-32.627.237-2.37.442-4.679.674-6.955Zm-22.794-135.201c-2.605.484-4.915-1.66-4.597-4.291.609-5.047 1.236-9.842 1.343-14.655.18-8.381-.323-16.797-.646-25.212-.502-12.589-3.23-24.833-6.46-36.973-.789-3.001-.682-5.657.503-8.45 2.655-6.174 6.352-11.727 10.695-16.9 18.519-22.04 41.704-38.077 68.837-48.907 15.181-6.07 30.865-10.175 47.554-9.795 5.311.103 9.726 1.862 13.243 5.76 4.414 4.828 8.111 10.174 9.475 16.486 1.579 7.38 2.692 14.9 3.445 22.418.862 8.657 2.19 17.176 4.953 25.488 3.984 11.934 12.131 19.728 24.513 23.522 9.582 2.932 19.38 3.484 29.322 2.863 3.302-.207 6.603-.276 9.905-.345 2.979-.069 5.312 1.069 6.568 3.794 1.795 3.897 4.738 6.863 8.075 9.519 1.759 1.414 3.518 2.828 5.169 4.38 10.982 10.209 13.566 24.281 3.517 36.767-3.733 4.621-8.291 8.76-12.885 12.657-5.491 4.622-11.484 8.726-17.191 13.141-1.902 1.449-3.732 3.035-5.312 4.794-22.754 25.488-51.86 39.319-86.279 43.354-10.264 1.207-20.493 2.414-29.824 7.139-1.157.556-2.455-.591-2.818-1.822-.559-1.899-1.089-3.728-1.561-5.593-3.553-13.693-8.254-26.937-16.007-39.043-5.024-7.794-11.807-13.83-19.811-18.659-4.558-2.759-9.654-4.414-15.074-4.173-6.855.276-13.71.793-20.529 1.483-2.712.276-5.398.747-8.123 1.253Zm-228.839 3.17c-.852 1.394-2.477 2.131-4.065 1.748-14.276-3.448-25.923-13.766-29.474-29.107-3.051-13.14-2.333-26.281.43-39.353 2.549-12.14 5.276-24.211 7.681-36.386 1.184-6.001.646-12.037-1.005-18.004-2.154-7.795-6.891-14.14-11.736-20.522-3.625-4.794-6.999-9.726-10.193-14.796-2.835-4.449-3.015-9.312-1.615-14.382 2.692-9.899 8.47-10.76 15.971-9.623 1.795.276 3.625.932 5.276 1.76 3.553 1.793 7.142 3.552 10.444 5.725 8.29 5.45 16.366 11.209 24.584 16.727 9.152 6.105 18.986 10.9 29.933 13.106 6.424 1.277 12.992 2.242 19.524 2.76 9.223.69 18.339-.38 26.989-3.794 5.096-2 6.065-4.001 4.522-9.037-.933-3.035-2.118-6-3.087-9.001-.463-1.385 1.043-2.649 2.456-2.283 2.991.774 5.792 1.53 8.634 1.972 5.599.862 10.731-1.103 15.828-2.966 9.331-3.414 18.914-4.173 28.747-2.552 20.565 3.38 36.177 14.623 49.78 29.006 1.543 1.62 2.835 3.483 3.983 5.38 10.265 16.728 17.658 34.628 22.755 53.356 4.019 14.831 6.388 29.972 6.209 45.32-.108 8.933-.646 17.865-1.185 26.798-.098 1.651-.582 3.27-1.05 4.867-.399 1.358-1.432 2.46-2.776 2.905-12.194 4.035-23.328 9.506-33.618 16.528-1.506 1.027-3.505.942-4.978-.132-8.73-6.37-18.401-8.711-28.83-7.609-2.056.218-4.033-1.013-4.587-3.006-.928-3.338-1.796-6.452-2.544-9.586-2.369-9.589-6.46-18.246-13.854-25.247-5.742-5.415-12.489-8.553-20.672-8.898-5.276-.242-10.588-.725-15.541-2.897-9.582-4.208-19.739-5.45-30.183-5.415-19.56.069-35.387 7.484-47.016 22.487-4.881 6.277-8.793 13.244-13.099 19.901-.917 1.431-1.79 2.863-2.638 4.25Zm312.34 70.188c-.423-1.633.288-3.351 1.775-4.147 4.418-2.366 8.903-3.701 13.541-4.692 8.865-1.862 17.73-3.173 26.774-.965 4.701 1.138 9.475 2.104 14.212 3.173 18.663 4.173 35.459 11.588 48.81 25.246 8.219 8.381 15.648 17.176 20.278 27.972 6.855 15.865 7.716 32.317 5.814 49.113-1.615 14.21-3.373 28.42-5.204 42.63-1.112 8.691-.682 17.383.933 25.936 1.831 9.864 4.271 19.625 6.676 29.385 3.732 15.141 5.671 30.317 3.015 45.837-1.687 9.83-6.855 17.901-14.464 24.212-13.71 11.347-29.537 13.693-46.262 7.45-27.312-10.209-42.458-31.213-52.148-56.529-3.23-8.484-5.132-17.417-7.896-26.109-2.081-6.553-5.634-12.278-10.982-17.003-10.839-9.588-18.914-21.073-24.297-34.214-6.173-14.969-12.167-30.006-18.089-45.078-5.321-13.49-13.305-25.307-22.421-35.45a3.995 3.995 0 0 1-.928-1.77c-1.751-7.592-2.749-14.735-5.327-21.31-2.256-5.812-2.214-11.494-2.143-17.847.009-.788 1.166-1.128 1.461-.398 6.963 18.59 18.807 34.318 31.799 49.252 8.254 9.484 18.519 16.934 30.219 22.177 3.984 1.793 8.326 2.966 12.633 3.794 6.389 1.241 13.531-1.897 15.146-6.829 1.399-4.208 3.014-8.45 2.691-13.106-.215-3.174-1.579-6.105-1.794-9.14-.359-4.656-1.651-8.933-3.481-13.106-4.702-10.796-9.547-21.522-14.428-32.248-2.383-5.265-4.446-10.581-5.913-16.236Zm-258.517 9.321a4.143 4.143 0 0 1-3.038 2.502c-1.482.29-2.886.57-4.29.757-10.767 1.379-21.606 2.379-32.301 4.173-14.463 2.449-28.281 6.932-41.058 14.106-11.162 6.243-19.452 14.969-24.764 26.213-2.225 4.759-3.804 9.795-5.85 14.623-2.512 5.863-4.701 11.899-7.896 17.383-7.321 12.451-18.16 20.763-33.09 23.522-9.942 1.828-19.883 2.001-29.86.069-16.474-3.173-30.615-9.967-40.843-23.177-2.728-3.518-5.24-7.243-7.537-11.037-2.8-4.621-6.963-6.829-12.31-7.105-3.015-.138-6.03.242-9.044.207-4.45-.034-8.901.069-13.28-.379-5.634-.552-8.147-3.346-9.331-8.657-1.256-5.587-.251-10.968 1.113-16.348 5.06-20.177 15.648-36.904 33.915-48.528 6.21-3.931 12.777-7.38 19.238-10.933 4.09-2.242 8.398-4.208 12.525-6.415 15.54-8.312 28.963-19.142 41.237-31.489 7.824-7.898 16.761-14.693 26.667-20.108 10.372-5.656 21.318-9.45 33.592-8.277 2.979.276 5.994.379 8.973.862 9.331 1.517 18.555 3.345 26.81 8.243 3.122 1.862 6.783 2.828 10.192 4.242 1.656.707 2.34 2.641 1.461 4.212-.181.324-.357.643-.527.962-3.123 5.829-5.24 11.968-5.384 18.521-.179 6.932 3.912 10.726 11.054 11.002 5.168.207 9.906-1.242 14.535-3.139 5.025-2.069 9.906-4.345 14.967-6.277 8.434-3.242 17.011-5.38 26.379-4.07 9.833 1.38 19.452 3.208 28.64 6.933 1.733.699 1.802 3.169.324 4.315-14.867 11.529-24.361 26.243-31.219 43.092Zm67.238 54.488a1.32 1.32 0 0 0-.855.144 1.256 1.256 0 0 1-1.561-.27c-1.978-2.262-3.996-4.53-5.897-6.853-3.841-4.725-6.532-10.036-8.578-15.658-4.845-13.313-5.383-26.937-3.445-40.802 3.158-22.591 14.391-40.318 34.023-53.218 6.819-4.483 14.177-6.449 22.288-6.104 12.13.551 21.498 5.794 27.527 15.796 9.583 15.865 11.162 33.076 8.111 50.804-2.333 13.52-8.326 25.763-15.899 37.214-2.404 3.656-5.67 6.967-9.116 9.795-5.383 4.449-11.772 5.588-18.555 3.242-5.491-1.897-10.659-1.586-15.72 1.138-2.01 1.07-4.306 1.759-6.029 3.139-1.954 1.716-4.002 2.003-6.294 1.633Zm68.143-114.423c-1.328-.456-1.711-2.433-.513-3.165 12.489-7.795 25.768-13.865 40.447-16.555 6.891-1.242 13.926-1.69 20.817-2.863 4.342-.724 7.536.69 10.443 3.484 5.348 5.208 9.511 11.14 11.055 18.348 2.512 11.83 4.952 23.729 6.89 35.663 2.441 15.244 8.255 28.868 19.058 40.388 5.67 6.035 11.628 11.83 17.119 18.003 4.666 5.208 9.224 10.554 13.208 16.279 2.763 3.967 4.773 8.485 6.424 13.003 2.979 8.071-3.086 15.865-11.879 15.969-4.594.034-8.758-1.311-12.741-3.208-12.203-5.863-22.575-13.761-31.368-23.901-12.956-14.934-23.974-30.869-31.045-49.217-3.158-8.243-6.352-16.521-10.3-24.453-9.655-19.418-24.621-32.938-47.159-37.629a10.963 10.963 0 0 1-.456-.146Zm-95.9 11.605a4.322 4.322 0 0 1-3.981.03c-7.898-4.018-16.314-6.111-24.883-7.764-12.562-2.414-24.8-1.793-36.608 3.277-4.594 1.965-9.08 4.138-13.781 5.828-3.841 1.38-7.86 2.553-11.916 3.242-3.86.662-6.448-.307-8.554-3.007-.838-1.074-.832-2.554-.218-3.77.606-1.2 1.253-2.458 1.989-3.673 6.281-10.45 15.791-17.486 27.061-22.143 13.782-5.69 25.518-14.037 36.966-23.177 6.245-5.001 13.28-9.105 20.206-13.278 4.702-2.829 10.014-4.036 15.648-3.415 3.697.414 7.394.69 11.09.897 9.045.483 16.581 3.828 22.575 10.45 6.891 7.623 10.623 16.59 12.562 26.351.375 1.892.566 3.829.724 5.541.14 1.527-.576 3.02-1.875 3.834-3.699 2.316-6.962 4.276-10.047 6.455-3.393 2.4-6.586 5.018-10.062 7.758-.819.645-1.859.929-2.898.858-8.367-.571-16.288 1.618-23.998 5.706Zm358.262 283.539a.472.472 0 0 1-.846-.338c.053-.544.098-1.084.218-1.6 2.081-8.656 2.655-17.417 1.902-26.246-.933-10.865-3.374-21.453-6.245-31.972-3.051-11.21-5.419-22.488-5.635-34.145-.287-16.211 2.477-32.076 4.702-48.045 1.615-11.795 2.189-23.556.646-35.421-2.046-15.589-8.111-29.489-18.699-41.457-3.696-4.207-7.824-8.036-11.772-12.037-.399-.417-.799-.826-1.202-1.235-.6-.608-.26-1.631.485-1.213 10.336 5.483 20.313 11.416 28.783 19.417 10.803 10.209 19.811 21.66 26.738 34.697 5.635 10.589 10.659 21.315 14.105 32.766 2.979 9.933 3.804 19.935 2.297 30.213-1.328 8.933-4.45 17.314-7.465 25.798-3.553 10.002-7.501 19.97-10.121 30.213-2.225 8.761-2.728 17.935-4.163 26.902-1.723 10.865-5.204 21.143-11.342 30.489-.721 1.072-1.562 2.143-2.386 3.214ZM298.905 370.82c-1.168 2.145-3.85 3.178-5.831 1.75-5.301-3.82-9.097-8.703-12.159-14.224-4.845-8.795-6.998-18.348-7.644-28.178-.718-11.623.251-23.143 3.409-34.421 5.025-18.142 13.423-34.593 27.241-48.113 7.68-7.485 16.509-13.279 27.384-15.555 1.481-.311 2.983-.66 4.58-.807 2.114-.195 3.106 2.23 1.808 3.911-6.568 8.346-11.413 17.486-13.889 27.73-2.872 11.761-4.02 23.591-2.369 35.662 1.902 13.52 6.101 25.971 15.755 36.422 4.666 5.07 9.081 6.38 15.505 3.724.339-.142.676-.282 1.011-.42 1.784-.738 3.89-.115 4.749 1.613 1.92 3.867 1.899 6.789-.077 9.696-.92 1.355-2.721 1.645-4.269 1.114-10.751-3.693-21.508-2.28-31.956 2.069-9.456 3.925-18.224 8.8-23.248 18.027Zm113.223-141.086c-1.306-2.126.566-4.696 2.985-4.085 8.333 2.105 15.657 5.269 22.067 10.258 18.052 13.969 27.132 32.421 28.101 54.494.503 11.313-3.768 21.246-11.018 30.144-3.445 4.208-6.46 8.761-9.582 13.21-1.113 1.586-1.795 3.483-2.943 5.001-7.753 10.14-17.838 17.072-30.614 20.108-7.789 1.862-15.648 1.931-23.329-.38-5.347-1.621-8.29-6.691-6.496-11.726 2.153-6.036 5.563-11.485 11.018-15.417 4.558-3.277 8.434-7.14 11.341-11.761 11.916-18.866 19.489-38.836 16.976-61.496-1.112-9.967-3.337-19.521-8.506-28.35ZM308.631 51.966c.256 1.667-.855 3.173-2.432 3.772-2.154.819-4.216 1.625-6.37 2.167-10.587 2.69-21.283 2.035-32.014.483-14.356-2.104-27.025-7.933-38.761-15.969-7.465-5.139-14.966-10.209-22.574-15.175-4.881-3.208-10.121-5.76-16.007-6.76-.757-.133-.279-1.406.486-1.475 8.449-.758 16.379-.223 24.278 1.026 7.07 1.138 14.14 2.276 21.247 2.897 13.638 1.207 26.737-1.724 39.765-5.311 16.51-4.553 33.055-9.037 49.672-13.175 10.229-2.553 20.493-2.104 30.255 2.276 9.942 4.45 19.201 9.864 26.953 17.452 7.681 7.484 14.679 15.486 20.852 24.177.618.875-.387 1.905-1.307 1.358-2.556-1.517-4.894-3.223-7.27-4.91-13.136-9.312-27.851-13.796-44.217-13.451-7.321.138-14.176 2-20.816 4.621-6.424 2.518-12.561 2.07-18.77-.448-1.328-.552-2.62-1.173-3.984-1.517-1.846-.444-3.516 1.422-3.278 3.306.635 5.035 3.493 9.457 4.292 14.656Zm388.887 125.127a.625.625 0 0 1-.665.258.713.713 0 0 1-.53-.778c.094-.706.175-1.43.34-2.092 2.225-8.174.323-15.659-4.701-22.281-2.584-3.414-5.85-6.415-9.081-9.277-3.517-3.105-6.962-6.105-9.008-10.382-1.436-3.07-4.091-4.38-7.644-4.346-6.891.138-13.782.311-20.637.069-4.989-.172-10.049-.621-14.894-1.69-13.603-3.035-23.042-10.657-26.954-23.936-.861-2.897-1.938-5.794-2.368-8.76-1.293-9.243-2.333-18.556-3.482-27.833-1.22-9.761-4.486-18.728-11.377-26.282-.694-.75.242-1.913 1.195-1.544 7.737 2.993 13.547 7.475 17.253 14.444a410.221 410.221 0 0 0 5.204 9.519c3.122 5.553 7.321 10.174 12.669 13.83 5.419 3.725 11.305 6.484 17.693 8.312 7.932 2.277 15.9 4.622 23.903 6.657 15.11 3.794 27.42 11.347 36.679 23.625 8.327 11.003 11.378 22.936 8.901 36.249-1.804 9.757-6.886 18.107-12.496 26.238ZM465.096 308.552c.545-1.29 2.699-1.414 2.985-.044 1.435 7.002 3.194 13.969 4.055 21.039.574 4.725.503 9.726-.395 14.417-2.261 12.037-8.577 22.177-17.873 30.42-8.972 7.967-18.232 15.589-27.42 23.281-4.45 3.725-9.187 7.036-14.822 9.036-8.901 3.208-17.227 2.276-24.656-3.552-6.676-5.243-10.731-12.244-12.741-20.143-1.221-4.759-1.113-10.071 3.266-13.347 3.086-2.276 5.886-4.449 7.68-7.76.293-.563 1.197-.385 1.83-.339.358.026.727.061 1.077.132 10.983 2.724 21.57 1.483 31.978-2.553 11.054-4.276 19.381-11.623 25.913-21.004 1.974-2.828 3.266-6.139 5.347-8.898 4.892-6.546 10.398-12.681 13.776-20.685Zm-81.436 95.846c1.511 1.554 1.387 4.33-.566 5.269-10.05 4.863-20.781 6.07-31.763 4.518-7.932-1.103-14.894-4.759-21.606-8.795-6.567-3.931-13.171-7.794-19.739-11.726-1.687-1-3.41-2.035-4.989-3.242-4.45-3.449-5.922-7.933-4.773-13.279 1.256-5.967 4.378-10.692 9.547-14.175 8.29-5.622 17.119-10.14 27.384-11.106 11.197-1.035 21.175.897 27.276 11.451.861 1.517 2.907 2.414 4.45 3.518.314.222.633.432.952.634 1.549.98 2.256 2.828 1.849 4.616-3.033 13.338 3.128 23.21 11.978 32.317Zm-231.388-28.102a.688.688 0 0 1-.889-.101.697.697 0 0 1 .064-1.003c9.443-8.028 13.771-18.887 18.03-29.779 1.651-4.243 3.087-8.588 4.953-12.727 5.814-12.727 15.397-22.005 28.209-28.42 16.761-8.381 34.742-12.451 53.297-14.727 1.188-.147 2.375-.295 3.558-.437 1.325-.159 2.045 1.085.928 1.817-4.199 2.621-8.506 5.104-12.561 7.932-12.957 8.968-24.298 19.728-35.854 30.213-5.312 4.794-10.157 10.037-15.648 14.659a453.746 453.746 0 0 1-23.221 18.417c-6.734 4.955-13.879 9.448-20.866 14.156Zm334.961-174.292c-.515-.395.095-1.244.738-1.156 2.736.379 4.983 1.554 7.099 2.88 7.932 4.898 14.643 10.968 19.524 18.901 6.927 11.243 11.341 23.384 14.643 36.007 3.697 14.313 8.183 28.282 14.966 41.629 4.702 9.244 8.219 19.039 12.095 28.661 1.023 2.491 1.463 5.199 2.151 7.83.061.237-.05.484-.28.567a.452.452 0 0 1-.562-.254c-4.287-9.827-11.309-17.725-18.752-25.388-5.598-5.725-11.125-11.519-16.437-17.486-8.255-9.278-13.818-19.866-15.935-32.007-1.866-10.829-3.805-21.659-5.886-32.489-1.969-10.253-5.26-19.991-13.257-27.605a1.02 1.02 0 0 0-.107-.09ZM172.82 59.957c.155-3.767 4.976-5.206 7.198-2.16 2.536 3.477 5.029 6.865 7.584 10.214 8.111 10.657 10.408 22.487 7.788 35.248-1.867 9.037-3.948 18.004-6.066 27.006-3.266 13.934-4.953 27.937-2.045 42.146.583 2.935 1.429 5.775 2.192 8.672a.5.5 0 0 1-.271.571.452.452 0 0 1-.586-.187c-1.346-2.323-2.833-4.592-4.027-6.986-8.973-17.9-13.674-36.87-13.71-56.633-.072-17.9 1.148-35.8 1.794-53.7.04-1.393.091-2.787.149-4.19Zm131.537 100.725c3.204.571 3.187 4.186.203 5.484-2.176.947-4.275 1.939-6.238 3.141-6.173 3.725-12.239 7.726-17.838 12.21-10.623 8.484-21.498 16.52-34.418 21.59-2.656 1.035-5.096 2.518-7.609 3.863-9.008 4.794-16.006 11.554-21.031 20.211-.332.574-1.222.227-1.152-.432a37.089 37.089 0 0 1 1.583-7.535c.897-2.725 1.866-5.587 3.445-7.967 7.106-10.657 14.105-21.418 21.785-31.696 6.425-8.588 15.361-14.348 25.877-17.694 10.157-3.242 20.493-3.586 30.973-1.862 1.466.226 2.951.425 4.42.687ZM467.309 633.9a.523.523 0 0 1-.718-.721c.394-.664.777-1.357 1.238-1.949 4.882-6.381 8.65-13.279 11.342-20.763 1.83-5.07 3.768-10.105 5.706-15.141 4.666-12.037 13.243-20.452 25.661-25.178 6.245-2.379 12.598-4.552 18.95-6.656 7.788-2.587 15.182-5.76 21.032-11.623.295-.284.851.229.845.638a.398.398 0 0 1-.02.121c-4.558 13.727-11.664 25.729-24.584 33.834-3.015 1.897-5.958 3.829-9.009 5.657a83.329 83.329 0 0 0-18.339 14.865c-8.506 9.174-17.802 17.555-28.353 24.591-1.207.846-2.502 1.578-3.751 2.325ZM28.646 274.846c-1.383 1.107-3.028-.104-2.14-1.636 8.092-13.958 29.806-35.807 47.54-47.65 14.848-9.897 39.14-20.966 55.027-26.089 3.807-1.228 4.846 1.831 1.472 3.98-.339.216-.677.435-1.013.657-7.788 5.139-14.823 11.105-21.498 17.624-15.576 15.244-33.45 27.557-53.62 36.766-9.331 4.277-17.909 9.795-25.769 16.348Z"/></mask><path d="M176.637 363.907c.166.145.197.41.064.586-.992 1.303-1.957 2.582-2.953 3.89-18.447 24.419-32.301 51.045-41.094 80.016-4.199 13.865-5.634 28.144-4.737 42.526.646 10.589 2.225 21.108 6.747 30.972.79 1.759 1.687 3.518 2.548 5.243 6.317 12.381 16.474 19.9 30.686 22.211 1.543.242 3.087.586 4.63.862 9.367 1.759 16.76 6.312 21.57 14.348 3.23 5.381 6.352 10.795 9.475 16.21 3.553 6.209 7.572 12.037 13.207 16.728 4.881 4.07 10.336 7.381 16.796 7.691 5.061.242 10.301-.517 15.254-1.621 5.132-1.138 10.121-3 15.037-4.897 5.635-2.208 11.378-3.656 17.515-3.725 1.974-.035 4.019-.38 5.886-1.035 13.028-4.656 24.548-11.244 32.372-22.798 7.645-11.312 13.028-23.556 17.12-36.421.389-1.259 2.218-1.117 2.447.181.276 1.567.542 3.008.855 4.441 1.722 7.794 4.881 15.072 9.905 21.349 5.814 7.208 8.973 15.244 10.408 24.108.575 3.656 1.651 7.243 2.548 10.864 3.051 12.141 9.583 22.626 17.443 32.283 9.152 11.244 21.893 17.141 36.177 19.97 11.664 2.276 23.077.931 34.239-2.898 14.176-4.863 26.271-12.864 37.182-22.625 4.917-4.415 9.654-9.071 14.212-13.83 4.989-5.208 10.48-9.795 16.761-13.52.861-.518 1.651-1.104 2.548-1.552 18.483-9.658 28.64-25.143 34.167-44.147 4.414-15.107 5.06-30.386 3.589-45.872-.245-2.698 2.906-3.449 4.081-1.008l.154.318c8.972 18.728 22.969 32.869 42.17 42.043 12.526 6.002 25.698 7.554 39.192 3.07 7.322-2.414 13.674-6.415 19.094-11.658 15.683-15.21 26.235-32.937 28.783-54.597 1.005-8.485 1.759-17.073 4.02-25.281 2.943-10.761 7.106-21.211 10.982-31.731 3.41-9.243 6.137-18.624 7.035-28.419.825-8.761-.467-17.314-2.979-25.73-5.635-18.831-14.284-36.249-26.128-52.252-13.279-17.866-30.973-30.42-51.251-40.008-16.689-7.898-34.167-13.451-52.471-16.59-1.213-.212-.889-1.727.295-2.064.544-.155 1.091-.3 1.643-.419 24.37-5.036 45.114-16.521 63.202-32.765.646-.552 1.292-1.104 1.831-1.759 7.501-9.485 17.837-15.866 27.24-23.316 3.769-3 7.573-5.932 11.198-9.036 12.597-10.83 21.857-23.832 25.41-39.87 2.907-13.003.753-25.385-7.071-36.766-9.618-13.969-22.646-23.074-39.586-27.213-9.296-2.276-18.483-5.001-27.563-7.933-12.49-4.07-22.073-11.52-27.672-23.28-.61-1.242-1.327-2.45-1.938-3.69-6.46-13.383-18.303-19.177-32.695-21.143-16.222-2.207-31.691 1.38-46.765 6.484-30.721 10.45-56.706 27.557-77.306 51.942-4.451 5.277-8.327 10.899-10.947 17.245-.379.85-1.674.67-2.054-.179a17.547 17.547 0 0 1-.638-1.58c-10.192-28.523-25.733-54.08-46.154-76.913-4.378-4.897-9.403-9.277-14.463-13.554-7.071-5.967-15.469-9.933-24.226-13.14-10.336-3.795-20.888-3.14-31.296-.415-17.407 4.519-34.777 9.313-52.148 14.003-8.003 2.173-16.15 4.139-24.477 4.174-7.25.034-14.571-.794-21.785-1.794-9.798-1.38-19.488-3.518-29.43-2.76-3.804.277-7.68 1.001-11.341 2.07-6.029 1.794-9.977 5.932-11.521 11.83a54.277 54.277 0 0 0-1.615 10.175c-.287 3.966.036 8.001-.107 12.002-.467 12.106-1.077 24.247-1.508 36.352-.466 13.624-1.902 27.282-.143 40.906 2.046 16.072 5.635 31.799 13.351 46.319 2.907 5.484 6.998 10.382 10.551 15.521.882 1.228-.07 2.874-1.55 2.566-2.498-.52-4.799-.998-7.099-1.462-17.299-3.38-34.347-1.621-50.892 3.414-32.66 10.002-62.484 24.971-86.566 49.01-20.134 20.108-34.275 43.733-43.499 70.084-2.225 6.311-2.978 12.864-2.404 19.555.718 8.623 5.024 12.865 14.248 13.279 5.742.241 11.485.31 17.227-.035 6.676-.413 10.982 2.035 14.248 7.726 11.198 19.59 28.712 30.558 51.646 33.8 20.35 2.897 39.407-.759 56.993-10.933 6.747-3.897 13.064-8.485 19.596-12.761.684-.47 1.398-.911 2.088-1.376.128-.086.289-.098.406.004Zm166.627 51.367c1.411.49 2.478 1.8 2.396 3.292-.825 8.898-1.902 17.796-2.44 26.729s-.718 17.9-.79 26.868c-.107 14.934-1.794 29.661-4.45 44.354-3.051 16.693-8.685 32.455-17.155 47.354-7.25 12.727-18.053 21.246-31.942 26.316-3.41 1.242-7.178 2.104-10.839 2.242-5.132.207-9.834 1.517-14.571 3.242-5.743 2.069-11.593 4.001-17.479 5.691-11.305 3.242-20.959.172-28.963-7.795a61 61 0 0 1-7.68-9.381c-2.871-4.277-5.132-8.899-7.824-13.313-2.405-3.932-4.845-7.795-7.537-11.554-3.338-4.691-7.896-8.002-13.531-9.761-2.978-.931-5.993-2-9.08-2.414-17.334-2.173-28.065-11.899-34.382-27.04-3.23-7.761-5.061-15.797-5.814-24.04-1.544-16.589-.287-33.041 4.809-49.044 8.326-26.144 20.601-50.528 36.895-72.912 5.742-7.898 12.202-15.348 18.878-22.522 5.922-6.311 12.489-12.106 18.986-17.866 10.551-9.346 21.103-18.693 31.977-27.66 7.968-6.553 16.725-12.106 26.415-16.142a40.1 40.1 0 0 1 1.924-.737c1.936-.692 3.944 1.139 3.388 3.117-4.917 17.555-6.388 35.249-1.902 53.08 3.409 13.555 10.013 25.212 23.041 32.558.778.449.957 1.503 1.01 2.399.375 6.329 3.347 11.479 9.47 14.501 12.693 6.263 23.461 15.671 37.19 20.438Zm132.417-80.369a.553.553 0 0 1 .466-.486.604.604 0 0 1 .589.224c.886 1.219 1.725 2.483 2.686 3.63 7.393 8.899 12.992 18.763 17.155 29.454a2536.373 2536.373 0 0 0 17.981 44.699c4.989 12.072 12.131 22.971 22.001 31.765 6.962 6.209 11.125 13.589 13.386 22.143 5.527 20.901 8.722 42.078 6.82 63.737-1.149 13.106-7.466 22.626-20.206 27.834-3.015 1.241-6.138 2.276-9.224 3.38-6.424 2.31-12.992 4.38-19.309 6.932-12.274 4.932-20.816 13.486-25.518 25.454-2.081 5.277-3.983 10.622-5.921 15.934-3.661 10.002-9.045 19.038-16.51 26.867-1.399 1.484-3.194 2.829-5.06 3.656-10.624 4.553-21.642 7.209-33.414 5.588-15.612-2.173-29.142-8.14-39.227-20.142-7.717-9.209-12.275-20.039-16.474-31.007-.682-1.793-.969-3.725-1.435-5.622-4.845-19.659-2.477-16.831-13.782-32.903-9.116-12.934-10.516-27.695-8.937-42.871 1.257-12.175 2.872-24.35 3.589-36.559.79-13.348.718-26.73 1.113-40.112.144-4.277.502-8.519 1.005-12.761.141-1.102.412-2.188.72-3.269.547-1.923 2.447-3.167 4.44-3.003 13.136 1.082 25.221-.786 35.759-7.316.903-.559 1.981-.784 3.018-.558 3.111.676 5.845 1.39 8.606 1.626 9.582.828 17.801-2.794 24.871-8.519 11.27-9.174 22.647-18.314 33.198-28.213 9.404-8.829 15.541-19.728 16.94-32.627.237-2.37.442-4.679.674-6.955Zm-22.794-135.201c-2.605.484-4.915-1.66-4.597-4.291.609-5.047 1.236-9.842 1.343-14.655.18-8.381-.323-16.797-.646-25.212-.502-12.589-3.23-24.833-6.46-36.973-.789-3.001-.682-5.657.503-8.45 2.655-6.174 6.352-11.727 10.695-16.9 18.519-22.04 41.704-38.077 68.837-48.907 15.181-6.07 30.865-10.175 47.554-9.795 5.311.103 9.726 1.862 13.243 5.76 4.414 4.828 8.111 10.174 9.475 16.486 1.579 7.38 2.692 14.9 3.445 22.418.862 8.657 2.19 17.176 4.953 25.488 3.984 11.934 12.131 19.728 24.513 23.522 9.582 2.932 19.38 3.484 29.322 2.863 3.302-.207 6.603-.276 9.905-.345 2.979-.069 5.312 1.069 6.568 3.794 1.795 3.897 4.738 6.863 8.075 9.519 1.759 1.414 3.518 2.828 5.169 4.38 10.982 10.209 13.566 24.281 3.517 36.767-3.733 4.621-8.291 8.76-12.885 12.657-5.491 4.622-11.484 8.726-17.191 13.141-1.902 1.449-3.732 3.035-5.312 4.794-22.754 25.488-51.86 39.319-86.279 43.354-10.264 1.207-20.493 2.414-29.824 7.139-1.157.556-2.455-.591-2.818-1.822-.559-1.899-1.089-3.728-1.561-5.593-3.553-13.693-8.254-26.937-16.007-39.043-5.024-7.794-11.807-13.83-19.811-18.659-4.558-2.759-9.654-4.414-15.074-4.173-6.855.276-13.71.793-20.529 1.483-2.712.276-5.398.747-8.123 1.253Zm-228.839 3.17c-.852 1.394-2.477 2.131-4.065 1.748-14.276-3.448-25.923-13.766-29.474-29.107-3.051-13.14-2.333-26.281.43-39.353 2.549-12.14 5.276-24.211 7.681-36.386 1.184-6.001.646-12.037-1.005-18.004-2.154-7.795-6.891-14.14-11.736-20.522-3.625-4.794-6.999-9.726-10.193-14.796-2.835-4.449-3.015-9.312-1.615-14.382 2.692-9.899 8.47-10.76 15.971-9.623 1.795.276 3.625.932 5.276 1.76 3.553 1.793 7.142 3.552 10.444 5.725 8.29 5.45 16.366 11.209 24.584 16.727 9.152 6.105 18.986 10.9 29.933 13.106 6.424 1.277 12.992 2.242 19.524 2.76 9.223.69 18.339-.38 26.989-3.794 5.096-2 6.065-4.001 4.522-9.037-.933-3.035-2.118-6-3.087-9.001-.463-1.385 1.043-2.649 2.456-2.283 2.991.774 5.792 1.53 8.634 1.972 5.599.862 10.731-1.103 15.828-2.966 9.331-3.414 18.914-4.173 28.747-2.552 20.565 3.38 36.177 14.623 49.78 29.006 1.543 1.62 2.835 3.483 3.983 5.38 10.265 16.728 17.658 34.628 22.755 53.356 4.019 14.831 6.388 29.972 6.209 45.32-.108 8.933-.646 17.865-1.185 26.798-.098 1.651-.582 3.27-1.05 4.867-.399 1.358-1.432 2.46-2.776 2.905-12.194 4.035-23.328 9.506-33.618 16.528-1.506 1.027-3.505.942-4.978-.132-8.73-6.37-18.401-8.711-28.83-7.609-2.056.218-4.033-1.013-4.587-3.006-.928-3.338-1.796-6.452-2.544-9.586-2.369-9.589-6.46-18.246-13.854-25.247-5.742-5.415-12.489-8.553-20.672-8.898-5.276-.242-10.588-.725-15.541-2.897-9.582-4.208-19.739-5.45-30.183-5.415-19.56.069-35.387 7.484-47.016 22.487-4.881 6.277-8.793 13.244-13.099 19.901-.917 1.431-1.79 2.863-2.638 4.25Zm312.34 70.188c-.423-1.633.288-3.351 1.775-4.147 4.418-2.366 8.903-3.701 13.541-4.692 8.865-1.862 17.73-3.173 26.774-.965 4.701 1.138 9.475 2.104 14.212 3.173 18.663 4.173 35.459 11.588 48.81 25.246 8.219 8.381 15.648 17.176 20.278 27.972 6.855 15.865 7.716 32.317 5.814 49.113-1.615 14.21-3.373 28.42-5.204 42.63-1.112 8.691-.682 17.383.933 25.936 1.831 9.864 4.271 19.625 6.676 29.385 3.732 15.141 5.671 30.317 3.015 45.837-1.687 9.83-6.855 17.901-14.464 24.212-13.71 11.347-29.537 13.693-46.262 7.45-27.312-10.209-42.458-31.213-52.148-56.529-3.23-8.484-5.132-17.417-7.896-26.109-2.081-6.553-5.634-12.278-10.982-17.003-10.839-9.588-18.914-21.073-24.297-34.214-6.173-14.969-12.167-30.006-18.089-45.078-5.321-13.49-13.305-25.307-22.421-35.45a3.995 3.995 0 0 1-.928-1.77c-1.751-7.592-2.749-14.735-5.327-21.31-2.256-5.812-2.214-11.494-2.143-17.847.009-.788 1.166-1.128 1.461-.398 6.963 18.59 18.807 34.318 31.799 49.252 8.254 9.484 18.519 16.934 30.219 22.177 3.984 1.793 8.326 2.966 12.633 3.794 6.389 1.241 13.531-1.897 15.146-6.829 1.399-4.208 3.014-8.45 2.691-13.106-.215-3.174-1.579-6.105-1.794-9.14-.359-4.656-1.651-8.933-3.481-13.106-4.702-10.796-9.547-21.522-14.428-32.248-2.383-5.265-4.446-10.581-5.913-16.236Zm-258.517 9.321a4.143 4.143 0 0 1-3.038 2.502c-1.482.29-2.886.57-4.29.757-10.767 1.379-21.606 2.379-32.301 4.173-14.463 2.449-28.281 6.932-41.058 14.106-11.162 6.243-19.452 14.969-24.764 26.213-2.225 4.759-3.804 9.795-5.85 14.623-2.512 5.863-4.701 11.899-7.896 17.383-7.321 12.451-18.16 20.763-33.09 23.522-9.942 1.828-19.883 2.001-29.86.069-16.474-3.173-30.615-9.967-40.843-23.177-2.728-3.518-5.24-7.243-7.537-11.037-2.8-4.621-6.963-6.829-12.31-7.105-3.015-.138-6.03.242-9.044.207-4.45-.034-8.901.069-13.28-.379-5.634-.552-8.147-3.346-9.331-8.657-1.256-5.587-.251-10.968 1.113-16.348 5.06-20.177 15.648-36.904 33.915-48.528 6.21-3.931 12.777-7.38 19.238-10.933 4.09-2.242 8.398-4.208 12.525-6.415 15.54-8.312 28.963-19.142 41.237-31.489 7.824-7.898 16.761-14.693 26.667-20.108 10.372-5.656 21.318-9.45 33.592-8.277 2.979.276 5.994.379 8.973.862 9.331 1.517 18.555 3.345 26.81 8.243 3.122 1.862 6.783 2.828 10.192 4.242 1.656.707 2.34 2.641 1.461 4.212-.181.324-.357.643-.527.962-3.123 5.829-5.24 11.968-5.384 18.521-.179 6.932 3.912 10.726 11.054 11.002 5.168.207 9.906-1.242 14.535-3.139 5.025-2.069 9.906-4.345 14.967-6.277 8.434-3.242 17.011-5.38 26.379-4.07 9.833 1.38 19.452 3.208 28.64 6.933 1.733.699 1.802 3.169.324 4.315-14.867 11.529-24.361 26.243-31.219 43.092Zm67.238 54.488a1.32 1.32 0 0 0-.855.144 1.256 1.256 0 0 1-1.561-.27c-1.978-2.262-3.996-4.53-5.897-6.853-3.841-4.725-6.532-10.036-8.578-15.658-4.845-13.313-5.383-26.937-3.445-40.802 3.158-22.591 14.391-40.318 34.023-53.218 6.819-4.483 14.177-6.449 22.288-6.104 12.13.551 21.498 5.794 27.527 15.796 9.583 15.865 11.162 33.076 8.111 50.804-2.333 13.52-8.326 25.763-15.899 37.214-2.404 3.656-5.67 6.967-9.116 9.795-5.383 4.449-11.772 5.588-18.555 3.242-5.491-1.897-10.659-1.586-15.72 1.138-2.01 1.07-4.306 1.759-6.029 3.139-1.954 1.716-4.002 2.003-6.294 1.633Zm68.143-114.423c-1.328-.456-1.711-2.433-.513-3.165 12.489-7.795 25.768-13.865 40.447-16.555 6.891-1.242 13.926-1.69 20.817-2.863 4.342-.724 7.536.69 10.443 3.484 5.348 5.208 9.511 11.14 11.055 18.348 2.512 11.83 4.952 23.729 6.89 35.663 2.441 15.244 8.255 28.868 19.058 40.388 5.67 6.035 11.628 11.83 17.119 18.003 4.666 5.208 9.224 10.554 13.208 16.279 2.763 3.967 4.773 8.485 6.424 13.003 2.979 8.071-3.086 15.865-11.879 15.969-4.594.034-8.758-1.311-12.741-3.208-12.203-5.863-22.575-13.761-31.368-23.901-12.956-14.934-23.974-30.869-31.045-49.217-3.158-8.243-6.352-16.521-10.3-24.453-9.655-19.418-24.621-32.938-47.159-37.629a10.963 10.963 0 0 1-.456-.146Zm-95.9 11.605a4.322 4.322 0 0 1-3.981.03c-7.898-4.018-16.314-6.111-24.883-7.764-12.562-2.414-24.8-1.793-36.608 3.277-4.594 1.965-9.08 4.138-13.781 5.828-3.841 1.38-7.86 2.553-11.916 3.242-3.86.662-6.448-.307-8.554-3.007-.838-1.074-.832-2.554-.218-3.77.606-1.2 1.253-2.458 1.989-3.673 6.281-10.45 15.791-17.486 27.061-22.143 13.782-5.69 25.518-14.037 36.966-23.177 6.245-5.001 13.28-9.105 20.206-13.278 4.702-2.829 10.014-4.036 15.648-3.415 3.697.414 7.394.69 11.09.897 9.045.483 16.581 3.828 22.575 10.45 6.891 7.623 10.623 16.59 12.562 26.351.375 1.892.566 3.829.724 5.541.14 1.527-.576 3.02-1.875 3.834-3.699 2.316-6.962 4.276-10.047 6.455-3.393 2.4-6.586 5.018-10.062 7.758-.819.645-1.859.929-2.898.858-8.367-.571-16.288 1.618-23.998 5.706Zm358.262 283.539a.472.472 0 0 1-.846-.338c.053-.544.098-1.084.218-1.6 2.081-8.656 2.655-17.417 1.902-26.246-.933-10.865-3.374-21.453-6.245-31.972-3.051-11.21-5.419-22.488-5.635-34.145-.287-16.211 2.477-32.076 4.702-48.045 1.615-11.795 2.189-23.556.646-35.421-2.046-15.589-8.111-29.489-18.699-41.457-3.696-4.207-7.824-8.036-11.772-12.037-.399-.417-.799-.826-1.202-1.235-.6-.608-.26-1.631.485-1.213 10.336 5.483 20.313 11.416 28.783 19.417 10.803 10.209 19.811 21.66 26.738 34.697 5.635 10.589 10.659 21.315 14.105 32.766 2.979 9.933 3.804 19.935 2.297 30.213-1.328 8.933-4.45 17.314-7.465 25.798-3.553 10.002-7.501 19.97-10.121 30.213-2.225 8.761-2.728 17.935-4.163 26.902-1.723 10.865-5.204 21.143-11.342 30.489-.721 1.072-1.562 2.143-2.386 3.214ZM298.905 370.82c-1.168 2.145-3.85 3.178-5.831 1.75-5.301-3.82-9.097-8.703-12.159-14.224-4.845-8.795-6.998-18.348-7.644-28.178-.718-11.623.251-23.143 3.409-34.421 5.025-18.142 13.423-34.593 27.241-48.113 7.68-7.485 16.509-13.279 27.384-15.555 1.481-.311 2.983-.66 4.58-.807 2.114-.195 3.106 2.23 1.808 3.911-6.568 8.346-11.413 17.486-13.889 27.73-2.872 11.761-4.02 23.591-2.369 35.662 1.902 13.52 6.101 25.971 15.755 36.422 4.666 5.07 9.081 6.38 15.505 3.724.339-.142.676-.282 1.011-.42 1.784-.738 3.89-.115 4.749 1.613 1.92 3.867 1.899 6.789-.077 9.696-.92 1.355-2.721 1.645-4.269 1.114-10.751-3.693-21.508-2.28-31.956 2.069-9.456 3.925-18.224 8.8-23.248 18.027Zm113.223-141.086c-1.306-2.126.566-4.696 2.985-4.085 8.333 2.105 15.657 5.269 22.067 10.258 18.052 13.969 27.132 32.421 28.101 54.494.503 11.313-3.768 21.246-11.018 30.144-3.445 4.208-6.46 8.761-9.582 13.21-1.113 1.586-1.795 3.483-2.943 5.001-7.753 10.14-17.838 17.072-30.614 20.108-7.789 1.862-15.648 1.931-23.329-.38-5.347-1.621-8.29-6.691-6.496-11.726 2.153-6.036 5.563-11.485 11.018-15.417 4.558-3.277 8.434-7.14 11.341-11.761 11.916-18.866 19.489-38.836 16.976-61.496-1.112-9.967-3.337-19.521-8.506-28.35ZM308.631 51.966c.256 1.667-.855 3.173-2.432 3.772-2.154.819-4.216 1.625-6.37 2.167-10.587 2.69-21.283 2.035-32.014.483-14.356-2.104-27.025-7.933-38.761-15.969-7.465-5.139-14.966-10.209-22.574-15.175-4.881-3.208-10.121-5.76-16.007-6.76-.757-.133-.279-1.406.486-1.475 8.449-.758 16.379-.223 24.278 1.026 7.07 1.138 14.14 2.276 21.247 2.897 13.638 1.207 26.737-1.724 39.765-5.311 16.51-4.553 33.055-9.037 49.672-13.175 10.229-2.553 20.493-2.104 30.255 2.276 9.942 4.45 19.201 9.864 26.953 17.452 7.681 7.484 14.679 15.486 20.852 24.177.618.875-.387 1.905-1.307 1.358-2.556-1.517-4.894-3.223-7.27-4.91-13.136-9.312-27.851-13.796-44.217-13.451-7.321.138-14.176 2-20.816 4.621-6.424 2.518-12.561 2.07-18.77-.448-1.328-.552-2.62-1.173-3.984-1.517-1.846-.444-3.516 1.422-3.278 3.306.635 5.035 3.493 9.457 4.292 14.656Zm388.887 125.127a.625.625 0 0 1-.665.258.713.713 0 0 1-.53-.778c.094-.706.175-1.43.34-2.092 2.225-8.174.323-15.659-4.701-22.281-2.584-3.414-5.85-6.415-9.081-9.277-3.517-3.105-6.962-6.105-9.008-10.382-1.436-3.07-4.091-4.38-7.644-4.346-6.891.138-13.782.311-20.637.069-4.989-.172-10.049-.621-14.894-1.69-13.603-3.035-23.042-10.657-26.954-23.936-.861-2.897-1.938-5.794-2.368-8.76-1.293-9.243-2.333-18.556-3.482-27.833-1.22-9.761-4.486-18.728-11.377-26.282-.694-.75.242-1.913 1.195-1.544 7.737 2.993 13.547 7.475 17.253 14.444a410.221 410.221 0 0 0 5.204 9.519c3.122 5.553 7.321 10.174 12.669 13.83 5.419 3.725 11.305 6.484 17.693 8.312 7.932 2.277 15.9 4.622 23.903 6.657 15.11 3.794 27.42 11.347 36.679 23.625 8.327 11.003 11.378 22.936 8.901 36.249-1.804 9.757-6.886 18.107-12.496 26.238ZM465.096 308.552c.545-1.29 2.699-1.414 2.985-.044 1.435 7.002 3.194 13.969 4.055 21.039.574 4.725.503 9.726-.395 14.417-2.261 12.037-8.577 22.177-17.873 30.42-8.972 7.967-18.232 15.589-27.42 23.281-4.45 3.725-9.187 7.036-14.822 9.036-8.901 3.208-17.227 2.276-24.656-3.552-6.676-5.243-10.731-12.244-12.741-20.143-1.221-4.759-1.113-10.071 3.266-13.347 3.086-2.276 5.886-4.449 7.68-7.76.293-.563 1.197-.385 1.83-.339.358.026.727.061 1.077.132 10.983 2.724 21.57 1.483 31.978-2.553 11.054-4.276 19.381-11.623 25.913-21.004 1.974-2.828 3.266-6.139 5.347-8.898 4.892-6.546 10.398-12.681 13.776-20.685Zm-81.436 95.846c1.511 1.554 1.387 4.33-.566 5.269-10.05 4.863-20.781 6.07-31.763 4.518-7.932-1.103-14.894-4.759-21.606-8.795-6.567-3.931-13.171-7.794-19.739-11.726-1.687-1-3.41-2.035-4.989-3.242-4.45-3.449-5.922-7.933-4.773-13.279 1.256-5.967 4.378-10.692 9.547-14.175 8.29-5.622 17.119-10.14 27.384-11.106 11.197-1.035 21.175.897 27.276 11.451.861 1.517 2.907 2.414 4.45 3.518.314.222.633.432.952.634 1.549.98 2.256 2.828 1.849 4.616-3.033 13.338 3.128 23.21 11.978 32.317Zm-231.388-28.102a.688.688 0 0 1-.889-.101.697.697 0 0 1 .064-1.003c9.443-8.028 13.771-18.887 18.03-29.779 1.651-4.243 3.087-8.588 4.953-12.727 5.814-12.727 15.397-22.005 28.209-28.42 16.761-8.381 34.742-12.451 53.297-14.727 1.188-.147 2.375-.295 3.558-.437 1.325-.159 2.045 1.085.928 1.817-4.199 2.621-8.506 5.104-12.561 7.932-12.957 8.968-24.298 19.728-35.854 30.213-5.312 4.794-10.157 10.037-15.648 14.659a453.746 453.746 0 0 1-23.221 18.417c-6.734 4.955-13.879 9.448-20.866 14.156Zm334.961-174.292c-.515-.395.095-1.244.738-1.156 2.736.379 4.983 1.554 7.099 2.88 7.932 4.898 14.643 10.968 19.524 18.901 6.927 11.243 11.341 23.384 14.643 36.007 3.697 14.313 8.183 28.282 14.966 41.629 4.702 9.244 8.219 19.039 12.095 28.661 1.023 2.491 1.463 5.199 2.151 7.83.061.237-.05.484-.28.567a.452.452 0 0 1-.562-.254c-4.287-9.827-11.309-17.725-18.752-25.388-5.598-5.725-11.125-11.519-16.437-17.486-8.255-9.278-13.818-19.866-15.935-32.007-1.866-10.829-3.805-21.659-5.886-32.489-1.969-10.253-5.26-19.991-13.257-27.605a1.02 1.02 0 0 0-.107-.09ZM172.82 59.957c.155-3.767 4.976-5.206 7.198-2.16 2.536 3.477 5.029 6.865 7.584 10.214 8.111 10.657 10.408 22.487 7.788 35.248-1.867 9.037-3.948 18.004-6.066 27.006-3.266 13.934-4.953 27.937-2.045 42.146.583 2.935 1.429 5.775 2.192 8.672a.5.5 0 0 1-.271.571.452.452 0 0 1-.586-.187c-1.346-2.323-2.833-4.592-4.027-6.986-8.973-17.9-13.674-36.87-13.71-56.633-.072-17.9 1.148-35.8 1.794-53.7.04-1.393.091-2.787.149-4.19Zm131.537 100.725c3.204.571 3.187 4.186.203 5.484-2.176.947-4.275 1.939-6.238 3.141-6.173 3.725-12.239 7.726-17.838 12.21-10.623 8.484-21.498 16.52-34.418 21.59-2.656 1.035-5.096 2.518-7.609 3.863-9.008 4.794-16.006 11.554-21.031 20.211-.332.574-1.222.227-1.152-.432a37.089 37.089 0 0 1 1.583-7.535c.897-2.725 1.866-5.587 3.445-7.967 7.106-10.657 14.105-21.418 21.785-31.696 6.425-8.588 15.361-14.348 25.877-17.694 10.157-3.242 20.493-3.586 30.973-1.862 1.466.226 2.951.425 4.42.687ZM467.309 633.9a.523.523 0 0 1-.718-.721c.394-.664.777-1.357 1.238-1.949 4.882-6.381 8.65-13.279 11.342-20.763 1.83-5.07 3.768-10.105 5.706-15.141 4.666-12.037 13.243-20.452 25.661-25.178 6.245-2.379 12.598-4.552 18.95-6.656 7.788-2.587 15.182-5.76 21.032-11.623.295-.284.851.229.845.638a.398.398 0 0 1-.02.121c-4.558 13.727-11.664 25.729-24.584 33.834-3.015 1.897-5.958 3.829-9.009 5.657a83.329 83.329 0 0 0-18.339 14.865c-8.506 9.174-17.802 17.555-28.353 24.591-1.207.846-2.502 1.578-3.751 2.325ZM28.646 274.846c-1.383 1.107-3.028-.104-2.14-1.636 8.092-13.958 29.806-35.807 47.54-47.65 14.848-9.897 39.14-20.966 55.027-26.089 3.807-1.228 4.846 1.831 1.472 3.98-.339.216-.677.435-1.013.657-7.788 5.139-14.823 11.105-21.498 17.624-15.576 15.244-33.45 27.557-53.62 36.766-9.331 4.277-17.909 9.795-25.769 16.348Z" stroke="url(#a)" stroke-opacity=".08" stroke-width="6" mask="url(#b)"/><defs><linearGradient id="a" x1="498512" y1="31394.5" x2="147063" y2="21410.5" gradientUnits="userSpaceOnUse"><stop stop-color="#AB8D60"/><stop offset=".174" stop-color="#C4A673"/><stop offset=".511" stop-color="#F2D495"/><stop offset="1" stop-color="#AB8D60"/></linearGradient></defs></svg>